<?xml version="1.0" standalone="no"?>
<!DOCTYPE svg PUBLIC "-//W3C//DTD SVG 20010904//EN"
 "http://www.w3.org/TR/2001/REC-SVG-20010904/DTD/svg10.dtd">
<svg version="1.0" xmlns="http://www.w3.org/2000/svg"
 width="400.000000pt" height="400.000000pt" viewBox="0 0 400.000000 400.000000"
 preserveAspectRatio="xMidYMid meet">
<metadata>
Created by potrace 1.14, written by Peter Selinger 2001-2017
</metadata>
<g transform="translate(0.000000,400.000000) scale(0.100000,-0.100000)"
fill="#000000" stroke="none">
<path d="M2 3310 c0 -99 4 -182 8 -185 5 -3 15 2 23 10 14 13 16 13 20 -3 4
-15 5 -15 6 0 1 10 8 15 19 12 50 -10 131 -11 135 0 3 8 8 7 19 -2 11 -8 18
-9 23 -3 3 6 -7 13 -22 17 -45 9 -51 14 -13 10 19 -2 42 0 50 4 9 5 63 9 120
10 93 1 185 6 450 24 41 3 108 6 148 6 83 0 96 14 22 24 -28 4 -70 18 -94 31
-24 13 -46 22 -49 19 -3 -3 -3 4 0 16 5 18 2 21 -13 18 -12 -2 -18 -11 -16
-23 2 -17 1 -17 -7 -5 -6 8 -8 22 -5 32 2 9 0 19 -6 23 -5 3 -10 1 -10 -4 0
-18 -23 -8 -53 22 -20 20 -35 27 -55 24 -15 -2 -40 2 -55 10 -15 8 -32 11 -37
8 -6 -3 -44 -1 -87 5 -52 7 -80 7 -87 0 -5 -5 -17 -10 -25 -10 -13 0 -14 2 -2
9 9 6 -11 8 -54 7 -38 -1 -73 3 -79 9 -16 14 -27 16 -117 18 -46 1 -83 7 -91
15 -6 6 -23 12 -36 12 -13 0 -20 4 -17 10 3 6 2 10 -4 10 -6 0 -10 -67 -9
-180z m38 130 c0 -5 -2 -10 -4 -10 -3 0 -8 5 -11 10 -3 6 -1 10 4 10 6 0 11
-4 11 -10z m50 -23 c0 -1 -17 -3 -38 -3 -20 -1 -27 1 -14 3 12 2 19 9 16 15
-4 6 2 6 15 -1 11 -7 21 -13 21 -14z m25 -36 c7 -12 -32 -34 -45 -26 -6 3 -10
13 -10 21 0 16 45 20 55 5z m615 -17 c0 -8 -4 -12 -10 -9 -5 3 -10 10 -10 16
0 5 5 9 10 9 6 0 10 -7 10 -16z m-210 -76 c0 -6 -3 -8 -7 -5 -3 4 -13 1 -22
-6 -14 -11 -14 -10 -2 6 15 20 31 22 31 5z m90 -4 c0 -8 -19 -13 -24 -6 -3 5
1 9 9 9 8 0 15 -2 15 -3z m-398 -56 c-9 -9 -12 -7 -12 12 0 19 3 21 12 12 9
-9 9 -15 0 -24z m-76 -57 c-4 -5 0 -12 6 -14 7 -3 -3 -5 -22 -6 -19 0 -44 4
-55 9 -14 7 -9 8 18 4 24 -4 37 -2 37 5 0 6 5 11 11 11 5 0 8 -4 5 -9z"/>
<path d="M1680 3379 c0 -6 -4 -8 -9 -4 -5 3 -12 1 -15 -3 -3 -5 -22 -9 -43
-10 -21 -1 -39 -6 -41 -12 -2 -5 -12 -10 -23 -10 -10 0 -19 -4 -19 -10 0 -5
-7 -10 -15 -10 -8 0 -14 -5 -12 -12 1 -6 -7 -14 -18 -16 -27 -6 -34 -19 -29
-59 2 -19 -1 -43 -7 -54 -5 -11 -13 -68 -15 -127 -3 -59 -7 -120 -9 -137 -1
-16 -3 -43 -4 -59 -1 -19 -5 -27 -15 -23 -7 3 -19 0 -25 -6 -9 -9 -14 -9 -20
2 -6 10 -10 10 -16 1 -4 -7 1 -13 13 -17 29 -7 17 -29 -16 -27 -18 1 -26 6
-24 16 2 13 -11 15 -74 12 -91 -4 -112 -14 -28 -14 47 0 62 -4 73 -19 11 -15
23 -18 57 -15 35 4 44 1 44 -11 0 -8 6 -14 13 -13 8 2 12 -13 12 -50 1 -54 -8
-73 -27 -54 -6 6 -17 8 -24 5 -8 -3 -14 0 -14 7 0 6 -5 8 -12 4 -6 -4 -8 -3
-5 3 8 13 -12 30 -33 30 -9 0 -16 -10 -16 -24 -2 -32 -10 -39 -29 -23 -8 7
-15 8 -15 2 0 -14 27 -23 46 -15 8 3 13 11 10 18 -6 16 11 42 21 31 4 -5 3
-11 -3 -13 -6 -2 -10 -19 -7 -38 2 -18 -1 -36 -6 -39 -5 -3 -7 4 -5 16 4 21 4
21 -4 3 -5 -10 -8 -30 -6 -42 3 -29 -4 -30 -14 -2 -8 21 -9 21 -27 3 -17 -17
-30 -10 -25 12 1 4 -4 11 -12 15 -11 7 -10 9 1 9 11 0 9 4 -5 16 -18 14 -18
15 6 9 l25 -6 -25 15 c-14 8 -24 17 -22 20 8 19 0 28 -20 21 -13 -3 -28 -7
-35 -7 -7 -1 -10 -5 -7 -10 3 -5 10 -5 16 -2 6 4 8 -1 4 -12 -3 -11 -2 -25 3
-33 17 -26 2 -48 -30 -43 -28 4 -33 13 -32 57 0 6 -8 11 -17 11 -10 0 -16 -6
-13 -13 3 -6 0 -20 -6 -30 -9 -16 -11 -14 -12 12 -3 44 -4 49 -13 63 -4 7 -3
19 3 26 9 10 6 13 -11 12 -16 -1 -22 -7 -20 -20 2 -12 -1 -16 -10 -11 -10 6
-10 5 -1 -5 7 -8 8 -22 3 -40 -5 -16 -5 -32 -2 -36 4 -4 1 -4 -5 0 -7 4 -13
14 -13 22 0 19 -10 18 -26 -3 -12 -17 -14 -17 -27 1 -8 10 -19 16 -25 13 -6
-5 -13 12 -17 43 -7 50 -18 63 -29 35 -3 -8 -1 -15 4 -15 5 0 2 -9 -7 -19 -18
-22 -35 -19 -26 4 3 8 1 15 -5 15 -6 0 -9 -6 -8 -12 3 -22 17 -39 27 -33 5 4
9 2 9 -4 0 -17 -19 -22 -39 -10 -10 7 -17 19 -14 26 3 7 0 13 -5 13 -6 0 -14
16 -18 35 -8 46 -24 45 -24 -1 0 -19 -4 -33 -9 -30 -5 4 -7 -4 -3 -16 4 -18 2
-20 -19 -15 -13 4 -39 7 -57 7 -23 0 -31 4 -26 12 5 8 -2 9 -27 4 -30 -6 -32
-5 -14 8 11 7 26 12 35 9 12 -4 13 -3 1 5 -8 6 -21 8 -29 4 -10 -3 -13 -1 -8
6 4 7 1 12 -8 12 -9 0 -16 -9 -16 -20 0 -11 -5 -20 -11 -20 -7 0 -9 10 -5 28
4 17 3 22 -2 13 -11 -16 -27 3 -17 19 3 6 -4 14 -17 19 -28 11 -49 -9 -41 -39
3 -11 0 -20 -6 -20 -6 0 -13 11 -17 25 -7 27 -24 34 -24 10 0 -8 -6 -15 -12
-15 -9 0 -8 -4 2 -11 12 -9 12 -10 -3 -5 -10 3 -26 6 -34 6 -9 0 -14 3 -11 6
4 3 3 18 -2 34 -5 18 -4 32 3 40 9 8 6 9 -13 2 -18 -7 -25 -16 -24 -35 1 -15
-3 -24 -7 -21 -5 3 -9 -1 -9 -8 0 -10 -3 -9 -9 2 -12 17 -4 33 11 24 7 -4 8
-2 4 5 -4 6 -11 9 -16 6 -4 -3 -11 6 -14 20 -4 14 -11 25 -16 25 -6 0 -19 9
-29 19 -20 20 -20 20 -26 0 -7 -20 -25 -27 -25 -8 0 12 -42 8 -53 -6 -6 -6
-10 -5 -14 3 -4 10 -10 7 -21 -9 l-16 -22 -28 33 c-23 28 -28 31 -28 15 -1
-19 -1 -19 -11 -2 -8 14 -7 21 6 31 15 11 14 12 -4 12 -19 0 -20 -6 -20 -188
0 -103 4 -188 9 -188 5 0 11 8 13 18 4 12 5 11 6 -6 0 -12 7 -25 15 -28 8 -3
12 -12 10 -19 -4 -10 1 -12 15 -8 26 7 26 12 3 29 -15 12 -13 13 18 13 19 0
29 -3 23 -6 -20 -7 -15 -33 5 -33 10 0 24 6 32 13 12 10 12 9 1 -6 -11 -13
-11 -23 -3 -41 9 -19 8 -25 -4 -30 -8 -3 -20 -3 -28 0 -20 8 -29 34 -11 34 7
0 16 4 20 9 3 5 -9 8 -27 6 -18 -2 -44 -4 -57 -4 -18 -1 -22 -5 -16 -18 5 -14
4 -15 -6 -6 -9 9 -9 16 -1 26 7 8 9 17 5 20 -3 4 0 7 7 7 10 0 11 3 3 11 -27
27 -32 -6 -33 -226 -1 -220 4 -253 30 -205 6 11 16 20 23 19 9 0 9 -2 0 -6 -7
-2 -13 -11 -13 -18 0 -10 9 -11 35 -5 28 6 35 5 35 -7 0 -8 -5 -11 -12 -7 -10
6 -10 4 0 -7 6 -7 12 -27 13 -43 0 -17 3 -24 6 -16 3 8 10 25 14 38 5 13 14
20 20 16 8 -4 8 -9 0 -17 -14 -14 -14 -64 0 -73 6 -3 9 -17 6 -30 -2 -14 -1
-27 4 -30 4 -2 6 -11 2 -20 -3 -9 -15 6 -34 43 -16 32 -27 48 -25 36 5 -29 -5
-29 -60 2 l-44 25 0 -144 0 -144 45 14 c25 7 46 12 46 11 6 -9 6 -176 1 -175
-4 1 -26 -1 -49 -5 -34 -6 -43 -12 -43 -27 0 -23 10 -24 64 -9 29 8 41 8 46
-1 13 -21 30 22 18 43 -5 10 -10 71 -11 135 -1 64 -5 119 -9 122 -4 3 -5 29
-1 58 6 54 12 60 19 20 19 -111 25 -168 27 -264 1 -62 5 -110 10 -107 4 2 7
-8 6 -24 -1 -15 2 -36 6 -45 8 -21 -3 -23 -27 -4 -10 7 -14 16 -10 20 10 11
-50 -5 -65 -16 -6 -5 -17 -8 -25 -7 -30 4 -48 -2 -48 -16 0 -19 11 -19 80 0
68 18 71 18 64 0 -4 -8 -16 -15 -28 -16 -13 -1 -7 -5 19 -13 l39 -13 -47 -12
c-32 -7 -45 -15 -41 -23 5 -8 2 -9 -10 -5 -10 4 -15 3 -11 -3 3 -6 2 -10 -3
-10 -11 0 -26 -49 -18 -57 3 -3 27 2 54 11 42 14 51 22 56 46 4 22 11 30 26
30 11 0 20 5 20 11 0 5 5 7 10 4 6 -3 10 -2 10 3 0 6 11 9 25 8 23 -1 24 -2 8
-13 -9 -7 -24 -13 -33 -13 -22 0 -60 -28 -60 -45 0 -15 44 -11 89 8 30 12 37
14 52 16 7 1 5 10 -5 26 -9 14 -13 25 -9 25 5 0 14 -9 21 -20 7 -11 19 -20 27
-20 24 0 1 37 -27 45 -13 4 -37 13 -54 21 -38 17 -39 22 -54 244 -6 91 -15
216 -20 278 -4 62 -6 121 -3 132 6 23 23 27 23 5 0 -8 5 -15 11 -15 17 0 5 24
-18 35 -15 6 -21 18 -21 37 1 16 -2 31 -5 35 -4 3 -7 -2 -7 -13 -1 -14 -5 -11
-16 11 -8 17 -12 22 -9 12 3 -10 5 -28 5 -38 0 -14 4 -18 12 -13 10 6 10 5 1
-8 -7 -8 -10 -18 -6 -21 3 -4 -1 -7 -10 -7 -9 0 -17 5 -17 11 0 5 -5 7 -10 4
-6 -3 -10 -2 -10 4 0 6 -8 8 -17 5 -11 -4 -14 -3 -7 3 6 4 22 26 36 48 21 33
31 41 54 40 25 0 29 -4 27 -25 -1 -14 1 -19 4 -12 3 9 11 3 24 -17 23 -38 23
-39 2 -43 -14 -3 -14 -5 2 -18 11 -8 16 -10 12 -4 -8 15 29 45 48 38 8 -3 12
-10 9 -15 -3 -5 2 -9 10 -9 10 0 17 -13 21 -37 3 -21 8 -50 10 -64 3 -23 0
-28 -25 -33 -22 -4 -30 -11 -30 -27 0 -15 4 -19 16 -15 9 3 25 6 37 6 29 0 43
10 52 38 6 21 4 23 -14 17 -16 -5 -21 -2 -22 12 0 10 -4 41 -8 70 -8 55 -3 61
56 78 17 5 22 2 20 -14 0 -11 -4 -18 -8 -15 -4 2 -9 -3 -13 -11 -3 -8 -1 -15
5 -15 6 0 9 -14 6 -35 -6 -44 14 -75 36 -56 9 7 29 13 46 13 17 1 31 5 31 10
0 4 7 8 15 8 9 0 15 -10 15 -26 0 -20 4 -25 16 -20 70 27 155 12 151 -26 -1
-15 6 -24 28 -31 17 -5 33 -15 37 -21 5 -8 8 -7 8 2 0 19 28 14 47 -8 10 -11
32 -25 49 -30 33 -11 44 -31 44 -82 0 -20 -5 -28 -17 -29 -10 0 -28 -2 -41 -5
-30 -5 -50 15 -61 63 l-9 38 -2 -50 c-2 -39 -4 -44 -9 -25 l-7 25 -9 -25 c-7
-20 -9 -11 -12 43 l-4 68 -42 -5 c-23 -3 -44 -5 -47 -6 -3 0 2 -5 10 -10 13
-8 13 -10 -2 -11 -31 -3 -36 -4 -44 -11 -4 -5 -18 -8 -31 -8 -14 0 -23 -6 -23
-16 0 -11 5 -14 18 -9 9 4 28 8 41 10 13 1 27 9 32 16 5 8 9 11 9 7 0 -4 11
-3 25 2 25 9 25 9 25 -39 0 -37 -6 -54 -24 -74 -17 -18 -20 -27 -11 -29 11 -2
11 -7 -1 -22 -11 -16 -14 -17 -14 -4 0 18 -27 32 -35 18 -4 -6 -17 -10 -30
-10 -31 0 -43 -20 -21 -36 12 -8 27 -10 49 -3 39 11 49 3 13 -11 -43 -16 -61
-12 -79 19 -13 23 -25 29 -63 34 -33 3 -52 12 -64 27 -10 13 -22 20 -27 17
-11 -7 -53 28 -53 42 0 5 9 7 20 4 34 -9 70 5 70 27 0 17 -4 19 -27 14 -16 -4
-36 -11 -45 -16 -11 -5 -26 -5 -38 2 -29 15 -36 -9 -20 -68 53 -203 65 -228
127 -269 16 -11 16 -14 2 -25 -8 -7 -18 -21 -22 -31 -10 -28 18 -31 66 -8 54
26 69 26 92 1 37 -41 65 -18 65 53 0 15 5 27 11 27 7 0 9 -9 5 -22 -14 -51
-19 -138 -8 -138 8 0 10 -16 6 -48 -10 -88 -15 -112 -24 -112 -14 0 -40 68
-34 88 5 14 4 15 -5 2 -6 -8 -9 -33 -6 -55 3 -22 2 -34 -1 -27 -8 17 -38 15
-118 -8 -68 -19 -86 -31 -86 -59 0 -16 40 -10 140 23 l70 22 1 -20 c1 -12 1
-27 0 -33 -1 -7 5 -13 14 -13 8 0 15 -7 15 -15 0 -8 5 -15 10 -15 6 0 10 -4
10 -8 0 -5 -28 -17 -62 -28 -46 -15 -67 -27 -78 -46 -8 -15 -12 -30 -9 -33 4
-3 40 5 80 19 53 18 77 22 86 14 7 -6 10 -15 7 -20 -4 -6 -10 -6 -17 1 -15 15
-27 14 -21 -3 7 -18 -27 -31 -38 -14 -6 10 -8 8 -8 -4 0 -21 -20 -23 -39 -5
-10 10 -12 8 -9 -8 2 -16 -3 -21 -27 -23 -52 -5 -126 -33 -119 -44 4 -7 2 -8
-4 -4 -6 3 -26 -3 -44 -14 -18 -11 -43 -20 -55 -20 -13 0 -23 -4 -23 -10 0 -5
-9 -10 -20 -10 -11 0 -20 -4 -20 -10 0 -16 -27 -11 -34 6 -15 38 -6 51 39 64
25 7 45 15 45 19 0 3 -12 19 -26 35 -21 24 -30 27 -59 22 -58 -11 -125 37
-109 78 3 9 21 18 40 22 44 8 49 18 19 38 -17 11 -31 13 -47 7 -24 -9 -71 1
-94 20 -12 10 -14 -65 -14 -520 l0 -531 2000 0 2000 0 0 575 c0 316 -4 575 -8
575 -4 0 -9 -11 -10 -25 -4 -50 -53 -98 -75 -76 -12 12 8 41 28 41 7 0 16 7
19 16 11 28 6 54 -9 54 -8 0 -15 -5 -15 -10 0 -6 -3 -9 -7 -8 -5 0 -16 -2 -26
-7 -12 -5 -22 -2 -32 11 -14 18 -14 18 -15 -4 0 -17 -13 -28 -57 -50 -55 -25
-59 -30 -70 -76 -7 -28 -23 -60 -35 -72 -28 -27 -70 -41 -66 -22 4 17 24 38
37 38 12 0 31 32 31 54 0 13 -5 12 -40 -1 -22 -9 -40 -23 -40 -31 0 -12 -3
-12 -16 -1 -9 7 -31 12 -48 11 -17 -2 -45 2 -61 8 -17 7 -39 14 -50 16 -31 6
-67 26 -97 52 -19 18 -33 23 -51 18 -25 -6 -107 18 -165 48 -33 17 -44 46 -17
46 11 0 15 12 15 48 0 26 -4 52 -8 59 -9 14 -100 36 -119 29 -7 -3 -14 -22
-14 -43 -1 -38 -1 -38 -9 -8 -7 27 -10 29 -14 8 -9 -40 -53 -72 -77 -57 -8 4
0 13 21 23 36 18 61 61 34 61 -8 0 -27 -6 -43 -14 -30 -16 -118 -13 -151 4
-10 5 -27 10 -38 10 -10 0 -29 8 -41 19 l-21 19 65 23 c71 25 85 36 88 69 1
14 13 26 34 35 21 9 33 21 33 33 0 28 -31 37 -48 15 -10 -13 -13 -14 -11 -3 2
8 -2 25 -9 37 -7 12 -9 29 -6 37 5 13 -1 16 -37 14 -42 -3 -44 -1 -47 26 -2
15 -1 40 3 54 9 36 25 10 25 -40 0 -21 4 -38 8 -38 10 0 12 34 12 310 0 199 1
213 15 181 8 -18 15 -61 15 -95 0 -85 12 -257 18 -252 2 3 4 74 4 160 -1 140
1 154 16 149 10 -4 12 -8 4 -11 -7 -2 -10 -8 -6 -13 3 -5 8 -22 10 -36 6 -30
10 -37 25 -39 5 -1 12 -2 16 -3 4 0 -1 -7 -10 -13 -23 -18 -12 -54 21 -67 35
-14 71 -11 65 6 -5 13 9 18 20 7 12 -12 -33 -84 -52 -84 -24 0 -43 23 -39 46
2 11 -4 20 -14 22 -10 2 -18 -1 -18 -7 0 -6 3 -11 8 -11 4 0 7 -25 8 -55 1
-61 3 -65 34 -68 24 -2 45 -31 34 -49 -5 -7 1 -9 20 -6 18 4 26 1 26 -8 0 -8
-11 -14 -25 -14 -13 0 -36 -5 -50 -12 -21 -9 -25 -17 -20 -35 4 -16 1 -23 -10
-23 -8 0 -15 -4 -15 -9 0 -13 36 -20 51 -10 8 5 23 9 34 9 11 0 32 14 47 30
14 17 24 30 21 30 -2 0 2 7 11 15 12 12 20 13 43 3 30 -13 93 -17 93 -7 0 13
43 17 61 6 23 -14 25 -29 4 -21 -8 4 -15 1 -15 -4 0 -6 -13 -9 -32 -6 -23 3
-44 -2 -67 -16 l-33 -21 38 -29 c22 -16 41 -25 42 -19 2 5 8 6 13 3 12 -7 41
15 33 27 -2 5 7 11 22 15 26 7 26 8 8 22 -18 14 -18 14 3 8 12 -4 24 -2 28 4
3 5 1 10 -6 10 -7 0 -10 3 -7 6 9 8 78 -23 78 -36 0 -6 11 -5 29 4 15 8 40 17
54 20 15 2 31 8 37 11 6 4 17 1 25 -5 18 -15 20 -50 4 -50 -6 0 -9 6 -6 14 11
29 -14 33 -69 13 -60 -22 -67 -34 -26 -43 15 -3 31 -7 37 -8 5 -1 -17 -9 -49
-17 -73 -17 -90 -39 -55 -69 18 -17 20 -20 6 -16 -11 3 -30 9 -44 12 -23 6
-24 5 -12 -14 7 -11 19 -18 26 -15 8 3 13 -2 13 -13 0 -14 -2 -16 -9 -6 -4 8
-12 13 -17 12 -4 -1 -16 12 -25 29 -9 17 -20 27 -24 23 -4 -4 3 9 14 29 21 36
21 37 1 42 -11 3 -20 1 -20 -5 0 -5 -4 -6 -10 -3 -5 3 -10 1 -10 -5 0 -6 -16
-18 -35 -26 -19 -8 -35 -18 -35 -23 0 -8 32 -19 67 -24 5 0 14 -6 21 -14 10
-10 10 -17 1 -35 -7 -13 -12 -25 -11 -28 4 -14 -13 -46 -33 -62 -18 -14 -24
-30 -27 -73 -3 -61 -5 -60 72 -30 19 7 54 19 78 26 23 6 42 16 42 21 0 4 6 8
13 8 6 0 40 12 74 27 69 30 89 53 45 53 -24 1 -25 2 -9 11 23 13 70 120 59
131 -5 5 -16 6 -26 2 -13 -5 -14 -9 -5 -20 10 -12 8 -13 -6 -8 -14 6 -16 4
-10 -6 5 -8 4 -11 -3 -6 -13 8 -56 -69 -47 -84 3 -6 1 -10 -6 -10 -8 0 -9 10
-4 33 4 17 7 42 6 54 0 13 8 27 20 34 20 10 20 11 2 26 -10 8 -12 12 -5 8 7
-4 19 -1 27 5 11 9 22 8 50 -6 30 -14 41 -15 62 -5 22 10 25 10 15 -2 -9 -11
-7 -16 12 -25 17 -7 27 -7 35 1 8 8 11 8 11 -1 0 -7 8 -12 18 -12 9 0 24 -5
32 -11 12 -8 9 -9 -12 -5 -17 4 -28 2 -28 -4 0 -7 -8 -9 -20 -5 -23 7 -91 -12
-102 -29 -4 -6 4 -21 19 -33 29 -25 19 -31 -13 -9 -21 15 -51 6 -40 -12 9 -15
100 -35 104 -23 2 6 16 11 30 11 l27 -1 -23 -12 c-24 -14 -20 -27 10 -27 21 0
52 -16 82 -43 12 -11 22 -13 26 -7 4 6 14 8 22 5 21 -8 31 10 24 40 -5 21 -17
30 -51 37 -34 7 -80 27 -79 35 1 4 11 12 23 18 24 11 28 25 7 25 -8 0 -18 4
-21 10 -4 7 2 7 19 0 16 -6 27 -6 31 0 4 6 1 10 -6 10 -7 0 -9 3 -6 7 4 3 27
-4 52 -16 44 -22 46 -22 95 -6 62 20 80 15 80 -24 0 -16 5 -31 12 -33 8 -3 6
-16 -9 -46 l-20 -41 30 -11 c16 -5 34 -10 38 -10 14 0 11 104 -3 118 -9 9 -9
12 0 12 8 0 12 25 12 81 0 51 -4 78 -10 74 -5 -3 -10 -1 -10 5 0 6 -4 8 -10 5
-5 -3 -10 0 -10 7 0 7 -10 2 -21 -12 l-20 -25 16 32 c8 18 15 34 14 35 -2 2 3
13 9 25 16 28 5 58 -14 42 -8 -6 -14 -8 -14 -3 0 5 -4 4 -8 -1 -28 -39 -77
-48 -134 -25 -17 6 -11 7 23 3 29 -3 49 -1 53 6 4 6 16 11 27 11 10 0 19 6 19
14 0 7 7 19 15 26 12 10 13 15 4 21 -8 4 -4 9 11 14 12 4 27 2 33 -4 23 -23
27 -8 27 92 0 56 -4 98 -8 92 -10 -13 -32 -17 -32 -6 0 6 9 16 20 24 21 14 21
14 -2 20 -22 6 -18 22 5 22 9 0 13 172 15 689 l2 688 -77 -6 c-43 -3 -190 -11
-328 -17 -137 -6 -252 -12 -256 -15 -3 -2 -43 -4 -88 -5 -44 -2 -81 -5 -81 -9
0 -3 6 -12 13 -19 10 -11 10 -14 0 -18 -24 -9 -14 -33 13 -33 23 0 24 -2 10
-15 -8 -8 -23 -15 -34 -15 -11 0 -22 7 -26 15 -3 8 -14 15 -24 15 -10 0 -23 5
-30 12 -9 9 -14 4 -23 -20 -6 -18 -15 -32 -20 -32 -5 0 -9 -8 -9 -17 0 -14 -2
-15 -12 -4 -10 11 -10 14 0 18 6 3 12 10 12 17 0 16 -65 9 -80 -9 -14 -17 -2
-45 21 -45 21 0 26 -18 7 -25 -7 -2 -62 -7 -123 -10 -194 -9 -209 -11 -248
-28 -21 -10 -45 -16 -54 -15 -9 2 -18 -3 -20 -9 -3 -9 10 -13 45 -13 31 0 53
5 56 13 5 10 7 10 12 0 3 -7 13 -13 22 -12 11 0 12 2 5 6 -7 2 -13 8 -13 13 0
7 175 7 190 0 3 -1 8 -2 13 -1 4 0 7 -5 7 -12 0 -8 3 -8 9 2 15 23 112 16 133
-9 10 -12 19 -16 23 -10 3 5 3 11 -2 11 -13 3 89 17 125 18 17 1 32 -3 32 -9
0 -5 -7 -7 -15 -4 -8 4 -35 3 -59 0 -33 -5 -45 -12 -49 -28 -4 -14 -11 -19
-22 -14 -9 3 -26 6 -38 6 -18 0 -19 2 -7 10 12 8 10 10 -10 10 -15 0 -30 4
-36 10 -6 6 -23 4 -49 -4 -28 -10 -44 -11 -56 -3 -9 6 -24 7 -35 2 -11 -4 -30
-7 -43 -6 -14 2 -21 -1 -17 -8 4 -6 0 -11 -9 -11 -11 0 -15 5 -12 14 4 9 -3
16 -19 19 -19 3 -24 1 -19 -11 4 -11 -1 -13 -23 -9 -16 3 -33 2 -38 -3 -5 -5
-27 -11 -49 -13 -22 -3 -4 -5 40 -5 204 0 288 -2 283 -7 -3 -3 -59 -7 -124 -9
-65 -2 -144 -6 -174 -9 -46 -4 -48 -3 -15 3 31 6 22 8 -42 7 -87 -2 -109 6
-45 17 20 4 57 10 82 15 l45 8 -45 1 c-59 1 -138 -20 -133 -35 3 -7 -14 -14
-44 -19 l-48 -8 45 -8 c25 -4 53 -5 62 -2 10 3 18 0 18 -6 0 -18 -31 -24 -53
-11 -17 11 -19 11 -14 -3 4 -11 0 -19 -11 -23 -9 -4 -21 -11 -25 -17 -5 -6 -5
-1 -2 12 6 21 4 22 -22 16 -15 -4 -56 -7 -91 -7 -34 0 -65 -4 -68 -8 -3 -5 -2
-9 3 -9 88 -3 147 -10 155 -18 7 -7 -7 -9 -48 -7 -33 3 -104 4 -158 5 -107 0
-126 7 -34 12 46 2 54 5 45 16 -7 10 -12 11 -15 3 -2 -6 -15 -11 -28 -11 -14
0 -22 4 -19 10 6 10 -10 14 -53 12 -18 -1 -22 3 -18 16 4 10 7 50 8 88 2 52
-2 78 -14 96 -9 14 -14 35 -11 46 3 14 -2 24 -17 32 -16 9 -21 18 -17 36 3 19
1 22 -9 14 -9 -8 -14 -6 -19 9 -3 12 -10 21 -14 21 -4 0 -18 10 -31 23 -14 12
-27 21 -30 21 -10 -3 -35 10 -50 24 -9 9 -15 11 -18 4 -2 -6 -16 -3 -37 9 -19
12 -39 18 -44 15 -5 -4 -21 -2 -35 4 -18 6 -26 6 -26 -1z m1515 -215 c6 -2
-11 -2 -37 0 -32 2 -51 -1 -59 -10 -15 -18 -39 -18 -39 0 0 30 77 36 135 10z
m-45 -24 c0 -5 -7 -10 -15 -10 -8 0 -15 5 -15 10 0 6 7 10 15 10 8 0 15 -4 15
-10z m-175 -120 c16 -7 13 -9 -17 -9 -21 -1 -38 4 -38 9 0 12 27 12 55 0z
m208 -7 c-13 -2 -33 -2 -45 0 -13 2 -3 4 22 4 25 0 35 -2 23 -4z m-176 -19
c-3 -3 -12 -4 -19 -1 -8 3 -5 6 6 6 11 1 17 -2 13 -5z m176 -1 c-13 -2 -33 -2
-45 0 -13 2 -3 4 22 4 25 0 35 -2 23 -4z m-218 -23 c-3 -5 -15 -10 -26 -10
-10 0 -19 5 -19 10 0 6 12 10 26 10 14 0 23 -4 19 -10z m-232 -21 c9 0 17 -5
17 -10 0 -16 -228 -9 -234 8 -4 11 13 12 97 7 56 -3 110 -5 120 -5z m67 2 c0
-6 15 -12 33 -14 25 -3 21 -4 -15 -5 -38 -2 -46 1 -42 13 7 16 24 21 24 6z
m-720 -45 c0 -9 -30 -14 -35 -6 -4 6 3 10 14 10 12 0 21 -2 21 -4z m415 -16
c3 -5 1 -10 -4 -10 -6 0 -11 5 -11 10 0 6 2 10 4 10 3 0 8 -4 11 -10z m107 -2
c-9 -9 -15 -9 -24 0 -9 9 -7 12 12 12 19 0 21 -3 12 -12z m218 8 c0 -8 -61
-12 -66 -4 -3 4 11 8 30 8 20 0 36 -2 36 -4z m80 -12 c0 -2 -7 -4 -15 -4 -8 0
-15 4 -15 10 0 5 7 7 15 4 8 -4 15 -8 15 -10z m128 -11 c-10 -2 -26 -2 -35 0
-10 3 -2 5 17 5 19 0 27 -2 18 -5z m-871 -39 c-3 -3 -12 -4 -19 -1 -8 3 -5 6
6 6 11 1 17 -2 13 -5z m117 -7 c-4 -10 14 -14 73 -15 109 -3 133 -6 133 -14 0
-12 -9 -12 -256 -9 -124 1 -151 4 -151 15 0 11 5 12 18 5 21 -11 158 6 173 21
13 13 16 12 10 -3z m-2099 -34 c-2 -10 -4 -24 -4 -32 -1 -7 -7 -11 -16 -7 -8
3 -15 1 -15 -5 0 -6 -5 -7 -11 -3 -8 4 -3 11 12 20 13 7 25 17 25 23 2 17 4
21 8 21 2 0 3 -8 1 -17z m2605 7 c-8 -5 -26 -9 -40 -9 -23 1 -23 2 5 9 43 11
52 11 35 0z m-2514 -26 c2 -9 -6 -19 -17 -21 -10 -3 -16 -9 -13 -14 3 -5 -2
-6 -11 -3 -9 4 -14 12 -11 19 2 7 0 17 -6 23 -6 6 -1 8 16 5 17 -4 26 -1 26 8
0 17 13 3 16 -17z m1154 22 c0 -3 -4 -8 -10 -11 -5 -3 -10 -1 -10 4 0 6 5 11
10 11 6 0 10 -2 10 -4z m1133 -3 c-7 -2 -21 -2 -30 0 -10 3 -4 5 12 5 17 0 24
-2 18 -5z m42 -3 c-3 -5 -11 -10 -16 -10 -6 0 -7 5 -4 10 3 6 11 10 16 10 6 0
7 -4 4 -10z m65 0 c0 -5 -9 -10 -20 -10 -11 0 -20 5 -20 10 0 6 9 10 20 10 11
0 20 -4 20 -10z m40 0 c0 -5 -7 -7 -15 -4 -8 4 -15 8 -15 10 0 2 7 4 15 4 8 0
15 -4 15 -10z m-640 -45 c0 -5 -5 -3 -10 5 -5 8 -10 20 -10 25 0 6 5 3 10 -5
5 -8 10 -19 10 -25z m155 25 c3 -6 -4 -10 -17 -10 -18 0 -20 2 -8 10 19 12 18
12 25 0z m120 1 c-16 -7 -17 -9 -5 -13 8 -3 6 -4 -5 -2 -11 2 -33 4 -50 5 -29
1 -30 1 -5 9 14 4 39 8 55 8 25 1 27 -1 10 -7z m432 3 c-3 -3 -12 -4 -19 -1
-8 3 -5 6 6 6 11 1 17 -2 13 -5z m136 -1 c-13 -2 -35 -2 -50 0 -16 2 -5 4 22
4 28 0 40 -2 28 -4z m-2793 -7 c0 -9 -30 -14 -35 -6 -4 6 3 10 14 10 12 0 21
-2 21 -4z m2350 -7 c0 -9 -38 -19 -69 -19 -31 0 -16 -17 19 -22 14 -2 24 -9
23 -16 -4 -15 19 -16 35 0 9 9 12 7 12 -11 0 -20 4 -23 28 -18 15 3 34 1 42
-4 11 -7 1 -9 -32 -7 -26 1 -47 -2 -46 -7 1 -6 -11 -13 -28 -17 -16 -4 -3 -4
29 -1 105 10 127 7 112 -17 -5 -9 -10 -9 -18 -1 -13 13 -87 15 -87 2 0 -10
-80 -3 -93 9 -4 4 -70 5 -147 3 -89 -2 -141 0 -145 7 -4 6 -15 5 -34 -4 -16
-9 -33 -11 -41 -6 -10 6 -9 9 6 13 14 3 13 5 -7 6 -33 1 -41 9 -28 32 7 13 21
19 45 19 21 0 33 4 29 10 -3 6 -1 10 4 10 6 0 11 -4 11 -10 0 -5 12 -10 28 -9
l27 1 -25 8 c-22 7 -20 8 15 9 29 0 36 -2 25 -9 -13 -8 -13 -10 2 -10 9 0 20
5 24 11 4 7 25 9 58 6 l51 -6 -45 14 -45 13 71 1 c39 1 87 4 105 8 33 7 33 7
9 14 -17 4 -8 6 27 5 29 0 53 -4 53 -7z m323 -6 c-13 -2 -33 -2 -45 0 -13 2
-3 4 22 4 25 0 35 -2 23 -4z m174 1 c-3 -3 -12 -4 -19 -1 -8 3 -5 6 6 6 11 1
17 -2 13 -5z m-913 -20 c3 -8 2 -12 -4 -9 -6 3 -10 10 -10 16 0 14 7 11 14 -7z
m513 10 c-3 -3 -12 -4 -19 -1 -8 3 -5 6 6 6 11 1 17 -2 13 -5z m-2464 -31 c13
-8 7 -23 -9 -23 -8 0 -13 4 -10 8 3 5 -1 9 -9 9 -10 0 -11 -5 -5 -17 6 -12 4
-16 -11 -17 -11 -1 -17 2 -14 7 3 4 0 10 -7 12 -6 2 -12 12 -14 21 -2 15 3 17
34 11 21 -4 40 -9 45 -11z m93 -26 c7 2 19 -4 29 -13 16 -16 16 -18 -7 -37
-17 -14 -18 -17 -5 -13 10 3 16 2 13 -3 -3 -5 -17 -11 -31 -13 -13 -3 -22 -1
-19 3 3 5 -1 9 -8 10 -10 0 -10 2 1 6 11 5 11 7 0 15 -10 6 -7 8 11 6 17 -2
26 2 28 15 3 16 1 17 -16 8 -16 -8 -21 -7 -26 5 -10 27 -6 40 7 23 7 -9 17
-14 23 -12z m2362 6 c-10 -2 -26 -2 -35 0 -10 3 -2 5 17 5 19 0 27 -2 18 -5z
m89 1 c-3 -3 -12 -4 -19 -1 -8 3 -5 6 6 6 11 1 17 -2 13 -5z m56 -1 c-7 -2
-19 -2 -25 0 -7 3 -2 5 12 5 14 0 19 -2 13 -5z m170 -9 c-3 -9 2 -14 13 -14
13 0 15 -3 7 -11 -9 -9 -16 -8 -28 5 -19 19 -45 21 -45 4 0 -10 -24 -13 -93
-11 -118 2 -121 2 -114 9 3 3 35 7 72 8 36 1 70 6 75 12 5 5 34 10 64 10 43 2
53 -1 49 -12z m77 1 c0 -8 -4 -15 -10 -15 -5 0 -10 7 -10 15 0 8 5 15 10 15 6
0 10 -7 10 -15z m60 -15 c0 -5 -2 -10 -4 -10 -3 0 -8 5 -11 10 -3 6 -1 10 4
10 6 0 11 -4 11 -10z m-2679 -11 c11 -5 32 -11 46 -12 15 -1 29 -9 31 -16 3
-10 0 -12 -11 -8 -9 3 -19 2 -22 -3 -5 -9 7 -14 26 -12 4 1 6 -9 5 -23 -1 -23
-2 -23 -18 -5 -14 15 -24 17 -48 10 -21 -6 -34 -5 -43 4 -7 7 -19 15 -27 19
-12 4 -11 6 3 6 10 1 15 5 12 11 -3 5 0 7 8 4 20 -7 33 16 16 27 -20 12 -2 11
22 -2z m2786 5 c-3 -3 -12 -4 -19 -1 -8 3 -5 6 6 6 11 1 17 -2 13 -5z m40 -10
c-3 -3 -12 -4 -19 -1 -8 3 -5 6 6 6 11 1 17 -2 13 -5z m-3020 -31 c-3 -2 -14
0 -24 7 -16 10 -16 11 0 6 9 -3 17 0 18 7 0 8 2 8 6 -1 3 -7 3 -16 0 -19z
m2720 21 c-3 -3 -12 -4 -19 -1 -8 3 -5 6 6 6 11 1 17 -2 13 -5z m-1484 -16
c12 -7 34 -11 49 -9 19 2 31 -5 43 -23 9 -14 14 -30 10 -36 -3 -5 -2 -10 2
-10 5 0 9 -9 9 -19 0 -17 -6 -19 -41 -15 -58 7 -68 12 -63 32 3 10 -1 23 -8
30 -7 7 -10 20 -7 29 5 12 3 14 -7 8 -8 -5 -11 -4 -6 3 3 5 0 13 -6 15 -7 3
-9 6 -5 6 5 1 18 -4 30 -11z m624 -10 c-3 -8 -6 -5 -6 6 -1 11 2 17 5 13 3 -3
4 -12 1 -19z m668 12 c19 -8 19 -9 -2 -9 -12 -1 -25 4 -28 9 -7 12 2 12 30 0z
m138 3 c-7 -2 -19 -2 -25 0 -7 3 -2 5 12 5 14 0 19 -2 13 -5z m250 0 c-7 -2
-21 -2 -30 0 -10 3 -4 5 12 5 17 0 24 -2 18 -5z m-313 -13 c0 -5 -12 -10 -27
-9 l-28 1 25 8 c14 4 26 8 28 9 1 1 2 -3 2 -9z m-2653 -6 c-3 -3 -12 -4 -19
-1 -8 3 -5 6 6 6 11 1 17 -2 13 -5z m418 -2 c-6 -4 -11 -15 -10 -24 0 -10 -3
-18 -7 -18 -5 0 -16 0 -25 0 -14 0 -12 4 7 25 13 14 28 25 34 25 8 0 8 -3 1
-8z m415 -1 c0 -5 -8 -12 -17 -16 -17 -6 -17 -7 0 -16 23 -14 22 -38 -3 -36
-14 1 -20 8 -20 24 0 13 -4 23 -9 23 -4 0 -7 -12 -4 -27 l3 -28 -10 25 c-9 20
-8 27 6 37 9 7 21 10 25 7 5 -3 9 0 9 5 0 6 5 11 10 11 6 0 10 -4 10 -9z
m-797 -18 c-4 -11 -3 -14 5 -9 8 4 12 1 12 -10 0 -10 -3 -14 -7 -11 -3 4 -12
-1 -20 -11 -13 -15 -13 -15 -3 6 13 28 -3 29 -21 1 -14 -20 -14 -20 -15 5 -1
19 3 26 16 26 11 0 22 5 25 10 10 16 15 12 8 -7z m132 -1 c-3 -3 -11 0 -18 7
-9 10 -8 11 6 5 10 -3 15 -9 12 -12z m471 4 c15 -1 20 -6 16 -16 -5 -13 -3
-13 11 -1 15 12 17 11 15 -13 -2 -26 -25 -35 -43 -17 -6 6 -17 4 -29 -5 -14
-10 -16 -14 -5 -14 12 0 12 -2 -1 -10 -11 -7 -19 -5 -29 8 -9 12 -15 14 -18 5
-3 -7 -9 -13 -14 -13 -6 0 -8 4 -5 9 4 5 0 12 -6 14 -8 3 -5 6 6 6 12 1 16 6
12 17 -10 26 13 46 43 38 14 -4 36 -8 47 -8z m1539 4 c4 -6 -19 -9 -62 -8
l-68 1 60 7 c33 4 61 7 62 8 1 1 5 -2 8 -8z m-2041 -9 c7 -11 -14 -20 -31 -13
-7 2 -10 8 -7 13 7 12 31 12 38 0z m2156 -11 c-19 -12 -50 -13 -50 -2 0 5 14
9 32 10 23 1 28 -2 18 -8z m297 -6 c-3 -3 -12 -4 -19 -1 -8 3 -5 6 6 6 11 1
17 -2 13 -5z m-2427 -16 c0 -6 -3 -8 -7 -5 -3 4 -12 2 -19 -4 -8 -7 -14 -6
-20 2 -4 7 -3 9 4 5 6 -3 13 -2 17 4 8 14 25 13 25 -2z m1776 -1 c-14 -10 -9
-12 31 -11 27 1 57 5 67 9 12 5 21 4 23 -2 3 -7 20 -9 43 -6 44 6 53 -3 18
-17 -19 -7 -16 -9 20 -9 37 -1 42 2 43 22 l2 22 4 -22 c3 -15 12 -23 24 -23
13 0 19 -7 19 -24 0 -14 -5 -28 -11 -31 -6 -4 -8 -14 -5 -22 5 -12 -4 -13 -57
-7 -34 4 -73 6 -87 6 -20 -1 -22 0 -10 8 22 14 3 12 -20 -2 -17 -11 -7 -18 98
-71 64 -33 129 -68 144 -79 16 -11 32 -17 37 -13 5 3 13 0 17 -6 5 -8 2 -10
-7 -5 -8 4 -5 0 6 -9 11 -9 32 -23 46 -30 25 -14 27 -13 22 5 -5 17 0 20 28
20 32 0 99 -19 109 -31 3 -3 12 -8 20 -11 9 -3 2 -8 -18 -12 -37 -9 -38 -27
-1 -37 13 -4 18 -7 11 -8 -9 -1 -11 -8 -7 -21 3 -11 2 -20 -3 -20 -11 0 -11
-18 1 -37 6 -9 3 -11 -8 -7 -9 4 -14 13 -11 20 3 8 0 14 -7 14 -8 0 -8 3 2 9
17 11 8 27 -19 34 -22 6 -35 -7 -24 -24 4 -8 9 -8 17 0 6 6 16 11 21 11 6 0 1
-7 -11 -15 -19 -13 -21 -19 -11 -40 7 -15 16 -21 26 -18 12 5 14 -1 9 -33 -5
-40 9 -122 24 -138 5 -6 9 -22 9 -37 0 -15 5 -31 10 -34 6 -4 8 -15 5 -26 -4
-10 -2 -19 4 -19 7 0 9 -40 7 -121 -5 -128 -2 -149 20 -149 18 0 18 -26 0 -33
-7 -3 -18 -1 -23 4 -5 5 -23 5 -43 -1 -54 -14 -198 -26 -266 -22 -56 3 -62 6
-67 27 -3 20 1 25 22 28 25 3 24 4 -14 21 -38 18 -39 19 -17 27 13 5 28 7 33
3 5 -3 9 2 9 10 0 9 -3 16 -7 16 -5 0 -9 19 -10 42 -1 28 2 37 8 27 7 -12 9
-11 9 2 0 9 18 24 45 34 56 24 50 32 -10 15 -25 -7 -48 -10 -52 -7 -3 3 9 20
26 38 32 31 32 31 7 27 -19 -4 -27 0 -31 13 -4 11 -3 24 1 30 4 7 1 10 -7 7
-8 -2 -18 -19 -24 -36 -12 -43 -33 -42 -30 1 2 19 -1 40 -6 48 -7 11 -9 10
-10 -6 0 -14 -2 -16 -6 -5 -19 54 -37 80 -54 80 -23 0 -25 -18 -3 -27 10 -4
14 -13 10 -26 -2 -11 2 -26 10 -34 8 -8 14 -29 14 -46 0 -18 -4 -27 -8 -22 -4
6 -19 21 -34 34 l-27 23 6 -23 c4 -13 9 -26 13 -29 15 -10 40 -70 30 -70 -13
0 -13 -37 1 -42 13 -4 22 -128 9 -128 -6 0 -10 -4 -10 -10 0 -5 7 -7 15 -4 8
4 15 1 15 -5 0 -6 -4 -11 -9 -11 -5 0 -11 -9 -14 -21 -3 -12 -10 -18 -16 -15
-5 4 -13 1 -17 -5 -5 -8 -3 -9 6 -4 9 6 10 2 5 -16 -4 -13 -11 -26 -15 -29 -3
-3 -10 -13 -13 -24 -6 -14 -3 -17 8 -12 10 4 15 -1 15 -14 0 -11 -4 -20 -10
-20 -5 0 -10 -9 -10 -20 0 -11 -6 -20 -14 -20 -8 0 -16 -6 -19 -14 -3 -8 -16
-16 -29 -18 -20 -3 -18 -6 20 -26 47 -25 50 -32 22 -50 -24 -15 -25 -25 -4
-46 17 -17 11 -36 -11 -36 -14 0 -31 26 -60 90 -8 19 -26 58 -40 85 -32 67
-58 152 -50 165 10 16 35 12 29 -5 -3 -8 3 -26 15 -41 11 -14 18 -30 16 -35
-7 -11 32 -36 70 -44 l30 -7 -42 41 c-24 22 -43 47 -43 55 0 8 -4 16 -9 18 -5
2 -12 26 -16 53 -6 49 -6 50 10 23 17 -30 45 -38 45 -13 0 8 -4 15 -8 15 -5 0
-15 11 -22 25 -9 16 -22 25 -34 24 -38 -3 -46 1 -46 21 0 11 -7 23 -16 27 -13
5 -13 7 -2 14 9 6 4 11 -19 19 -19 7 -36 22 -43 41 -7 16 -15 27 -18 24 -3 -3
-15 15 -27 40 -12 24 -26 41 -30 37 -4 -4 -5 12 -1 36 4 26 2 42 -4 42 -5 0
-10 -6 -10 -12 0 -8 -3 -9 -8 -3 -4 6 -13 11 -19 12 -10 2 -10 -3 -2 -21 8
-17 8 -29 0 -42 -9 -17 -10 -15 -11 13 0 17 -4 35 -10 38 -15 10 -8 115 9 115
9 0 11 8 7 25 -4 16 -2 25 5 25 6 0 9 7 6 15 -4 8 -2 17 3 20 6 4 10 -1 10 -9
0 -18 35 -22 45 -6 3 6 15 10 26 10 11 0 17 -4 14 -10 -3 -5 -1 -10 5 -10 6 0
13 7 16 15 4 9 26 17 57 22 l52 7 -50 12 c-27 6 -62 16 -77 22 -21 9 -34 7
-65 -8 -21 -10 -42 -16 -47 -13 -5 4 -6 1 -2 -6 4 -6 3 -18 -3 -25 -14 -17
-71 -8 -71 11 0 8 5 11 12 7 7 -4 24 -9 37 -10 20 -3 22 -1 11 7 -13 8 -10 14
15 34 17 14 37 32 46 40 9 8 21 15 27 15 6 0 9 6 6 13 -2 7 5 22 16 34 11 12
20 27 20 32 0 5 6 16 13 23 16 16 59 106 82 173 17 48 21 111 10 146 -4 12 2
16 31 17 32 1 35 0 20 -11z m542 6 c-10 -2 -28 -2 -40 0 -13 2 -5 4 17 4 22 1
32 -1 23 -4z m162 -3 c0 -5 -2 -10 -4 -10 -3 0 -8 5 -11 10 -3 6 -1 10 4 10 6
0 11 -4 11 -10z m-2346 -8 c2 -4 -5 -9 -17 -9 -17 -2 -19 0 -7 7 18 12 18 12
24 2z m461 -2 c-3 -6 6 -15 20 -20 34 -13 38 -13 29 3 -5 7 -1 7 10 -2 9 -8
15 -23 13 -32 -3 -10 -2 -18 2 -17 3 0 13 0 21 -1 11 -1 12 -3 3 -9 -9 -6 -9
-20 3 -60 16 -53 33 -65 59 -39 11 11 10 15 -5 25 -14 8 -20 8 -22 0 -3 -8 -6
-7 -10 3 -4 11 1 15 22 14 16 0 26 -3 23 -7 -2 -5 0 -8 5 -8 18 0 5 -62 -14
-73 -16 -9 -17 -8 -7 5 11 13 8 15 -19 16 -20 0 -27 -2 -19 -7 7 -5 12 -11 12
-15 -3 -24 1 -36 9 -31 7 4 8 -3 4 -21 -7 -26 -6 -27 32 -20 21 4 42 8 46 9 3
1 6 -2 7 -8 0 -5 -12 -9 -27 -8 l-27 3 24 -10 24 -10 -20 -23 c-34 -37 -9 -64
29 -30 24 22 23 32 -4 25 -14 -3 -19 -2 -14 6 4 7 19 12 33 12 23 0 24 2 12
18 -12 16 -12 16 5 1 17 -15 21 -15 57 0 41 17 50 30 22 32 -12 0 -13 2 -5 6
7 3 19 0 26 -6 16 -14 26 -4 19 17 -4 15 -3 15 6 2 10 -13 12 -13 21 0 13 19
13 33 0 25 -5 -3 -10 -1 -10 4 0 6 6 11 13 12 10 0 10 2 0 6 -7 2 -13 9 -13
14 0 6 5 7 10 4 6 -4 10 5 10 20 0 14 -3 24 -7 22 -5 -3 -8 7 -8 23 0 18 4 26
12 23 7 -3 10 -9 7 -14 -3 -5 0 -9 5 -9 6 0 11 5 11 10 0 6 6 10 14 10 13 0
30 -44 31 -80 0 -18 41 -26 59 -11 19 16 50 3 36 -14 -13 -15 -2 -47 14 -42 6
2 11 12 11 23 0 10 6 23 13 27 18 12 15 27 -5 27 -17 1 -17 1 -1 14 10 7 14
17 10 21 -4 4 0 6 8 3 8 -3 14 -12 12 -22 -2 -9 2 -16 8 -16 5 0 11 7 11 15 1
8 3 20 4 25 1 6 3 15 4 21 0 6 9 9 19 7 17 -3 20 -22 23 -150 1 -27 5 -35 15
-31 8 3 14 2 12 -3 -3 -11 61 -114 70 -114 4 0 18 -10 32 -21 l25 -20 -35 6
c-19 4 -45 13 -57 21 -25 16 -86 15 -80 -1 2 -5 -5 -19 -15 -30 -20 -20 -20
-20 -13 18 5 25 4 37 -4 37 -6 0 -11 -6 -11 -14 0 -7 -3 -28 -6 -45 -5 -24 -3
-31 9 -31 8 0 18 -7 21 -16 4 -11 10 -13 23 -5 11 6 24 6 35 0 20 -11 53 -68
44 -76 -3 -3 -1 -14 5 -24 6 -11 6 -19 0 -19 -5 0 -9 -6 -8 -12 1 -35 -4 -47
-17 -42 -21 8 -26 -9 -15 -50 9 -33 13 -37 39 -33 23 4 29 1 34 -19 4 -13 11
-24 16 -24 6 0 10 -6 10 -12 0 -7 -11 0 -25 15 -27 29 -47 35 -44 15 1 -7 1
-29 -1 -48 -1 -29 -3 -32 -10 -15 -14 33 -11 -1 4 -47 8 -24 17 -58 21 -77 4
-21 14 -35 26 -38 10 -3 16 -10 12 -16 -3 -5 -1 -7 4 -4 15 10 83 -21 83 -37
0 -7 9 -21 20 -31 11 -10 20 -26 20 -36 0 -11 17 -30 40 -44 22 -14 40 -30 40
-35 0 -6 7 -10 15 -10 8 0 15 -4 15 -8 0 -5 11 -21 24 -37 13 -15 38 -55 55
-89 24 -48 41 -68 81 -92 59 -36 56 -42 -35 -77 -58 -22 -73 -39 -40 -46 17
-3 25 -8 58 -37 7 -5 20 -13 30 -17 33 -12 6 -29 -39 -24 -32 3 -49 11 -65 31
-28 36 -49 56 -58 56 -4 0 -33 26 -64 57 -59 60 -99 118 -131 188 -10 22 -26
56 -35 75 -10 19 -30 80 -45 135 -15 55 -36 132 -47 172 -10 39 -19 81 -19 92
0 12 -5 21 -11 21 -8 0 -10 -17 -4 -57 4 -32 8 -83 9 -113 1 -30 7 -67 13 -81
7 -15 10 -29 7 -31 -2 -3 3 -24 11 -48 8 -23 15 -55 15 -70 0 -27 12 -62 51
-150 48 -106 113 -176 222 -242 37 -22 70 -44 73 -49 5 -9 -104 -13 -271 -11
-143 2 -134 0 -128 23 4 12 -3 32 -16 49 -25 35 -26 37 -3 43 14 3 12 6 -9 15
-24 10 -28 18 -38 94 -6 46 -16 160 -21 253 -16 263 -26 374 -33 382 -4 3 -7
-2 -7 -12 0 -28 -32 -95 -46 -95 -14 0 -23 -51 -19 -100 2 -19 1 -29 -2 -22
-2 6 -8 10 -13 7 -16 -10 -34 82 -31 155 4 79 -12 59 -18 -22 -1 -22 -17 -23
-25 -2 -3 8 -9 68 -12 132 -3 64 -8 119 -11 122 -3 3 -3 -19 -2 -48 3 -44 2
-50 -8 -35 -7 9 -13 23 -13 30 0 7 -6 13 -12 14 -7 0 -29 20 -48 44 -19 25
-43 54 -52 66 -10 12 -20 30 -23 40 -4 11 -10 19 -15 19 -11 0 -24 -39 -16
-47 3 -4 6 1 6 10 0 10 5 17 10 17 6 0 10 -5 10 -11 0 -6 10 -25 22 -42 13
-18 23 -34 22 -37 -3 -15 10 -39 17 -34 5 3 9 -2 9 -10 0 -8 8 -19 18 -25 9
-5 16 -13 16 -18 -1 -4 2 -7 8 -5 5 1 6 -3 2 -9 -4 -7 0 -17 9 -24 16 -11 43
-168 32 -185 -3 -5 -1 -10 3 -12 5 -1 12 -23 16 -47 l7 -44 -79 6 c-71 4 -116
17 -174 48 -27 14 -28 12 -28 -42 0 -35 -3 -48 -11 -43 -12 7 -11 -5 10 -114
11 -57 0 -160 -12 -112 -4 14 -16 77 -27 140 -11 63 -26 138 -32 165 -6 28
-11 56 -11 63 0 6 -4 12 -9 12 -12 0 -10 -24 12 -124 41 -181 49 -222 59 -293
13 -87 14 -190 2 -197 -5 -3 -11 13 -14 37 -5 36 -39 244 -53 317 -4 23 -44
301 -44 307 0 2 5 3 10 3 6 0 10 -9 10 -20 0 -11 5 -20 11 -20 6 0 8 13 5 31
-3 22 -1 28 6 21 11 -11 88 15 88 31 0 5 -7 7 -15 4 -10 -5 -16 4 -21 29 -7
39 -1 52 18 37 7 -6 23 -14 36 -17 18 -6 22 -3 23 16 1 23 1 23 8 -2 4 -15 3
-29 -3 -33 -7 -6 -4 -7 7 -3 9 3 17 1 17 -5 0 -15 51 -75 62 -72 4 2 8 -5 9
-15 0 -11 2 -12 6 -4 3 7 -13 36 -35 65 -41 55 -78 135 -66 146 4 3 9 0 11 -7
3 -6 9 -10 14 -7 5 4 6 -1 3 -9 -6 -16 22 -65 32 -56 3 3 12 -6 21 -20 10 -18
13 -19 9 -5 -6 19 -5 19 11 -2 20 -23 93 -67 93 -55 0 4 -10 14 -21 22 -46 32
-101 98 -135 163 -20 38 -38 66 -41 64 -2 -3 0 -15 7 -26 7 -14 7 -21 0 -21
-5 0 -10 6 -10 13 0 8 -15 22 -34 32 -38 20 -38 45 -1 45 28 0 43 19 24 31 -8
4 -16 4 -19 -2 -4 -5 -16 -11 -28 -14 -19 -3 -21 0 -16 20 5 22 3 24 -36 23
-38 0 -41 -3 -38 -23 3 -13 0 -22 -9 -22 -7 0 -13 5 -13 10 0 5 -7 4 -15 -3
-12 -10 -22 -9 -51 5 -20 10 -47 18 -60 19 -56 3 12 23 101 30 11 0 21 8 23
17 2 12 -4 15 -30 11 -18 -3 -36 -9 -39 -15 -4 -5 -16 0 -29 13 -13 13 -25 18
-29 13 -20 -31 -88 -42 -138 -22 l-28 12 33 9 c34 9 39 17 21 35 -23 23 2 32
80 29 63 -2 78 0 74 11 -4 9 0 11 13 6 13 -5 15 -3 9 7 -6 9 -4 11 4 6 17 -11
44 26 28 37 -8 6 -6 7 6 3 10 -3 17 0 17 7 0 8 4 7 10 -3 5 -8 12 -12 15 -8
10 10 14 78 4 72 -5 -3 -9 5 -9 18 0 18 2 20 10 8 11 -17 11 -17 15 29 2 29 0
32 -10 18 -10 -14 -12 -9 -12 28 0 25 4 45 9 45 5 0 7 -4 4 -8 -3 -5 1 -9 8
-9 8 0 12 6 9 14 -3 7 0 13 6 13 8 0 7 7 -1 23 -16 27 -29 37 -48 36 -9 0 -10
-3 -4 -5 7 -3 10 -14 7 -24 -4 -14 0 -20 13 -21 18 -1 18 -2 1 -6 -13 -3 -18
-13 -17 -31 1 -15 1 -40 0 -57 -2 -32 -4 -30 -25 33 -5 16 -15 22 -36 22 -15
0 -30 -4 -33 -9 -3 -5 -15 -7 -27 -4 -15 4 -17 8 -8 14 7 4 17 5 22 2 5 -3 4
4 -2 16 -10 17 -15 19 -31 11 -11 -6 -20 -18 -20 -26 0 -9 -6 -21 -12 -28 -10
-9 -17 -8 -30 6 -10 10 -13 18 -8 18 6 0 10 9 10 20 0 13 -5 18 -15 14 -8 -4
-15 -15 -15 -25 0 -10 -5 -19 -11 -19 -6 0 -8 -7 -5 -17 7 -17 6 -17 -11 0
-17 18 -17 19 0 32 18 13 18 14 0 24 -17 10 -17 10 0 12 26 2 31 4 45 12 6 5
12 4 12 -1 0 -6 18 -8 42 -5 32 5 44 2 54 -12 8 -11 30 -20 54 -22 38 -4 39
-3 37 25 -2 24 -6 28 -29 27 -15 -1 -25 2 -22 7 4 5 12 7 20 4 10 -4 14 3 14
24 0 17 5 30 11 30 5 0 7 -5 4 -10z m1958 3 c-7 -2 -19 -2 -25 0 -7 3 -2 5 12
5 14 0 19 -2 13 -5z m-2483 -22 c0 -4 -6 -15 -13 -26 -11 -14 -16 -15 -22 -5
-5 9 -4 11 3 6 7 -4 12 -5 12 -2 0 2 3 12 7 22 5 13 3 15 -7 9 -9 -5 -11 -4
-6 4 7 11 26 6 26 -8z m267 2 c-4 -3 -2 -12 5 -20 15 -19 -2 -33 -27 -22 -18
9 -18 9 3 5 22 -4 30 8 12 19 -10 6 -5 25 7 25 4 0 3 -3 0 -7z m164 -3 c5 0 9
-8 9 -17 0 -11 -3 -14 -8 -7 -4 6 -16 16 -27 23 -17 10 -17 12 -2 7 10 -3 23
-6 28 -6z m-358 -10 c-2 -3 -8 -4 -11 -4 -4 1 -17 -2 -29 -7 -13 -5 -23 -5
-23 0 0 14 10 19 40 17 16 0 26 -3 23 -6z m82 0 c-3 -5 -12 -10 -18 -10 -7 0
-6 4 3 10 19 12 23 12 15 0z m811 -6 c-4 -10 -2 -13 6 -8 7 5 9 2 5 -9 -4 -11
-2 -14 8 -11 9 4 13 -1 11 -12 -2 -10 -9 -20 -17 -22 -11 -3 -11 -1 1 7 13 9
13 11 -2 11 -10 0 -18 -6 -18 -12 0 -7 -5 -5 -11 5 -5 9 -17 17 -24 17 -8 0
-15 5 -15 10 0 6 5 10 10 10 6 0 10 7 10 15 0 9 9 15 21 15 15 0 19 -5 15 -16z
m1096 2 c6 4 8 2 4 -4 -3 -6 -2 -13 4 -17 5 -3 10 -2 10 4 0 6 11 6 32 0 25
-7 227 -20 364 -23 13 -1 20 -6 16 -14 -3 -9 -19 -12 -46 -10 -26 2 -45 -2
-52 -11 -7 -9 -16 -11 -24 -6 -18 11 -71 13 -91 4 -9 -5 -29 -4 -45 1 -27 8
-26 8 14 9 26 1 41 5 37 11 -3 6 -27 9 -53 7 -36 -2 -48 -7 -52 -22 -6 -24
-21 -28 -72 -20 -25 5 -36 11 -31 18 3 7 -3 3 -15 -7 -12 -11 -25 -16 -29 -13
-3 4 -2 7 4 7 7 0 10 21 8 53 -2 28 -1 46 2 39 3 -6 10 -9 15 -6z m-1352 -9
c15 -12 20 -50 8 -62 -4 -4 -11 2 -17 14 -8 14 -8 22 0 27 9 5 6 11 -6 21 -11
7 -15 13 -9 13 5 0 16 -6 24 -13z m-523 -3 c-3 -3 -12 -4 -19 -1 -8 3 -5 6 6
6 11 1 17 -2 13 -5z m696 -7 c3 -8 0 -14 -6 -14 -7 0 -23 -3 -36 -7 -16 -6
-21 -5 -17 3 4 6 14 11 22 11 8 0 14 5 14 10 0 15 17 12 23 -3z m1700 -37 c-3
-12 -13 -20 -27 -19 -14 0 -16 2 -6 6 8 3 19 12 23 19 12 20 16 17 10 -6z
m-2648 0 c-7 -12 12 -33 39 -43 12 -5 24 -1 35 11 13 16 21 17 41 9 20 -8 22
-11 8 -14 -29 -7 -20 -23 12 -23 17 0 30 -5 30 -10 0 -6 10 -8 24 -4 13 3 27
1 30 -5 5 -7 -1 -10 -15 -8 -12 1 -24 -4 -27 -12 -3 -11 2 -12 22 -7 35 9 51
-1 35 -21 -10 -11 -10 -16 0 -22 9 -6 6 -10 -10 -14 -30 -8 -46 3 -24 16 25
13 0 27 -37 20 -32 -6 -35 1 -12 25 15 15 15 16 -2 23 -11 3 -22 1 -26 -5 -4
-6 -10 -7 -14 -3 -4 4 -13 2 -20 -3 -9 -8 -12 -6 -10 6 0 9 -6 19 -14 21 -12
4 -12 3 -2 -5 10 -7 4 -14 -24 -27 -28 -13 -34 -19 -23 -27 12 -8 11 -9 -1 -5
-8 2 -15 10 -15 18 0 8 -7 19 -15 26 -13 10 -11 11 8 6 16 -4 22 -1 22 11 0
16 -24 18 -47 3 -7 -5 -13 -4 -13 2 0 6 -8 8 -17 4 -10 -3 -15 -3 -11 2 4 4
25 11 45 15 l38 8 -37 1 c-20 0 -39 5 -42 9 -3 5 9 7 27 5 29 -2 30 -2 7 6
l-25 8 30 5 c17 3 31 6 33 7 2 0 0 -4 -3 -9z m215 0 c0 -5 -5 -10 -11 -10 -5
0 -7 5 -4 10 3 6 8 10 11 10 2 0 4 -4 4 -10z m110 -6 c0 -2 -7 -4 -15 -4 -8 0
-15 4 -15 10 0 5 7 7 15 4 8 -4 15 -8 15 -10z m547 -9 c-4 -8 -13 -15 -22 -15
-21 0 -19 28 3 32 22 5 26 2 19 -17z m76 9 c-3 -8 1 -14 8 -14 12 0 12 -2 1
-9 -8 -4 -13 -11 -13 -15 1 -3 -1 -6 -4 -6 -29 0 -30 1 -17 9 11 7 11 9 -2 14
-21 8 -11 32 14 34 13 1 17 -3 13 -13z m236 3 c34 -3 37 -23 6 -31 -16 -4 -23
-11 -19 -18 4 -7 9 -22 10 -34 2 -16 -2 -21 -12 -17 -8 3 -14 12 -14 20 0 12
-3 13 -14 4 -10 -8 -15 -9 -18 -1 -2 6 -13 12 -26 13 -31 2 -28 15 6 23 47 10
54 14 50 26 -2 6 -10 14 -18 16 -7 3 -10 0 -7 -5 3 -5 -4 -9 -16 -10 -12 0
-16 1 -9 4 6 3 9 9 6 15 -5 7 3 9 22 4 16 -4 40 -8 53 -9z m1502 4 c-10 -7
-11 -13 -2 -30 15 -27 0 -27 -18 0 -11 18 -11 23 1 30 7 5 18 9 23 9 6 0 4 -4
-4 -9z m200 -18 c-12 -20 -14 -14 -5 12 4 9 9 14 11 11 3 -2 0 -13 -6 -23z
m-94 1 c-3 -3 -12 -4 -19 -1 -8 3 -5 6 6 6 11 1 17 -2 13 -5z m-2241 -41 c0
-10 5 -17 12 -15 6 1 12 -2 12 -8 0 -14 -13 -13 -28 2 -14 14 -16 38 -3 38 5
0 8 -8 7 -17z m2109 -12 c-3 -6 -11 -11 -16 -11 -5 0 -4 6 3 14 14 16 24 13
13 -3z m255 9 c0 -5 -2 -10 -4 -10 -3 0 -8 5 -11 10 -3 6 -1 10 4 10 6 0 11
-4 11 -10z m-2390 -15 c0 -8 -2 -15 -4 -15 -2 0 -6 7 -10 15 -3 8 -1 15 4 15
6 0 10 -7 10 -15z m292 -4 c9 -15 15 -17 26 -9 9 8 16 8 24 0 9 -9 8 -12 -4
-12 -8 0 -21 -7 -28 -15 -10 -12 -9 -16 5 -22 16 -6 16 -7 -4 -15 -14 -5 -20
-12 -15 -20 6 -9 3 -9 -9 1 -17 14 -25 57 -8 47 5 -3 9 6 9 19 0 15 -6 25 -14
25 -8 0 -14 5 -14 10 0 17 19 11 32 -9z m85 13 c-3 -3 -12 -4 -19 -1 -8 3 -5
6 6 6 11 1 17 -2 13 -5z m1613 2 c0 -3 -4 -8 -10 -11 -5 -3 -10 -1 -10 4 0 6
5 11 10 11 6 0 10 -2 10 -4z m22 -18 c-3 -14 -1 -19 6 -14 6 3 13 2 16 -3 4
-5 -2 -8 -11 -7 -19 3 -32 46 -15 46 6 0 8 -10 4 -22z m368 -9 c0 -5 -4 -9 -8
-9 -5 0 -9 7 -9 15 0 8 4 12 9 9 4 -3 8 -9 8 -15z m-2937 -16 c-4 -11 -8 -12
-13 -3 -5 8 -13 9 -21 4 -12 -6 -12 -5 -1 8 16 20 43 13 35 -9z m1005 9 c2 -6
-5 -9 -14 -8 -10 2 -20 8 -22 14 -2 6 5 9 14 8 10 -2 20 -8 22 -14z m1693 -5
c-10 -9 -11 -8 -5 6 3 10 9 15 12 12 3 -3 0 -11 -7 -18z m-2326 -11 c14 -12 7
-51 -11 -67 -9 -7 -14 -8 -14 -1 0 6 6 12 13 15 17 6 4 18 -22 20 -11 1 -21 5
-21 10 0 5 12 7 27 4 26 -5 27 -4 8 9 -18 14 -22 12 -43 -13 -14 -16 -19 -19
-14 -8 8 15 7 24 -4 37 -14 15 -12 16 27 11 24 -4 48 -11 54 -17z m50 15 c3
-5 1 -12 -5 -16 -5 -3 -10 -2 -10 4 0 6 -8 8 -17 5 -15 -5 -16 -4 -3 5 19 13
27 14 35 2z m2512 -33 c-3 -8 -6 -5 -6 6 -1 11 2 17 5 13 3 -3 4 -12 1 -19z
m-2477 -13 c0 -19 -11 -23 -40 -14 l-25 7 22 7 c13 4 20 11 17 16 -3 5 2 6 10
3 9 -3 16 -12 16 -19z m547 -2 c-3 -3 -11 -2 -17 2 -9 6 -9 10 1 16 14 8 27
-7 16 -18z m-369 -8 c-3 -3 -9 2 -12 12 -6 14 -5 15 5 6 7 -7 10 -15 7 -18z
m1934 -14 c3 -1 9 -19 13 -41 4 -23 12 -40 20 -40 22 0 26 -28 4 -35 -20 -7
-26 -40 -9 -48 6 -3 5 -4 -2 -3 -8 2 -14 21 -15 51 -2 27 -6 56 -9 65 -4 8 -6
18 -6 23 1 4 -9 12 -23 17 -40 15 -32 18 27 11z m-2129 -36 c-12 -9 -20 -9
-29 -1 -19 16 14 40 33 25 11 -10 10 -14 -4 -24z m205 23 c-3 -13 -24 -26 -45
-27 -7 -1 -10 6 -6 15 3 8 12 13 19 10 8 -3 14 -1 14 4 0 6 5 10 10 10 6 0 9
-6 8 -12z m-76 -30 c-7 -7 -12 -8 -12 -2 0 14 12 26 19 19 2 -3 -1 -11 -7 -17z
m1973 12 c-17 -7 -17 -9 -2 -9 13 -1 17 -9 16 -33 -2 -31 -2 -31 -6 -5 -5 31
-23 37 -23 7 0 -11 -4 -20 -10 -20 -6 0 -6 9 0 25 5 14 7 25 4 25 -3 0 -2 5 1
10 3 6 14 10 23 9 14 0 13 -2 -3 -9z m-2450 -10 c-3 -5 -12 -10 -18 -10 -7 0
-6 4 3 10 19 12 23 12 15 0z m262 -16 c-3 -3 -12 -4 -19 -1 -8 3 -5 6 6 6 11
1 17 -2 13 -5z m2408 -59 c48 -1 51 -3 61 -36 7 -19 10 -36 9 -37 -2 -2 -21
-10 -42 -17 -21 -7 -38 -19 -38 -26 0 -19 -24 -23 -31 -5 -3 8 -13 13 -22 10
-9 -3 -6 2 8 10 14 8 36 16 50 16 14 0 32 11 42 25 22 30 14 55 -15 47 -20 -5
-20 -6 -1 -12 15 -6 13 -8 -13 -12 -19 -2 -30 0 -26 5 4 6 -4 7 -20 3 -20 -5
-25 -3 -21 8 3 8 1 17 -5 21 -7 3 -8 0 -5 -9 4 -10 -2 -17 -20 -22 -14 -3 -26
-10 -26 -15 0 -5 7 -6 15 -3 11 5 13 2 9 -10 -4 -10 -13 -15 -20 -12 -8 3 -14
2 -14 -3 0 -4 -11 -13 -25 -19 -23 -10 -25 -9 -25 11 0 15 3 18 9 9 6 -10 10
-10 20 2 7 8 10 19 7 25 -3 5 1 11 9 15 8 3 15 12 15 20 0 18 19 27 45 19 11
-3 43 -7 70 -8z m-2635 -13 c0 -5 -7 -9 -15 -9 -8 0 -12 4 -9 9 3 4 9 8 15 8
5 0 9 -4 9 -8z m127 -8 c-3 -3 -12 -4 -19 -1 -8 3 -5 6 6 6 11 1 17 -2 13 -5z
m2703 -15 c13 -9 13 -10 -1 -6 -9 3 -22 0 -28 -6 -9 -9 -11 -8 -6 6 8 20 14
21 35 6z m60 2 c0 -5 -9 -7 -20 -4 -11 3 -20 7 -20 9 0 2 9 4 20 4 11 0 20 -4
20 -9z m-304 -19 c-3 -3 -1 -11 5 -19 11 -13 1 -18 -25 -14 -4 1 -14 -3 -21
-9 -11 -10 -12 -7 -2 14 7 14 16 26 20 26 5 0 5 4 2 10 -3 6 1 7 10 4 9 -4 13
-9 11 -12z m350 10 c-3 -4 12 -6 32 -5 100 10 106 9 112 -17 3 -14 17 -30 30
-37 14 -7 20 -13 13 -13 -6 0 -24 -5 -39 -10 -26 -10 -26 -11 -9 -30 10 -11
28 -20 39 -20 16 0 18 -2 7 -9 -14 -9 -7 -31 10 -31 6 0 7 4 4 10 -3 5 0 7 8
4 8 -3 14 2 14 11 0 8 -4 15 -9 15 -5 0 -3 6 4 14 7 8 16 12 20 10 4 -3 5 5 3
16 -2 12 1 20 10 20 7 0 21 3 31 7 13 5 16 3 11 -10 -3 -9 -1 -19 5 -23 6 -4
8 -3 5 2 -3 6 16 10 43 11 27 1 52 -2 55 -7 3 -5 0 -7 -8 -5 -7 3 -24 1 -38
-4 l-24 -10 26 0 c15 -1 29 -7 32 -14 4 -10 -3 -12 -24 -9 -16 2 -43 -2 -61
-9 -31 -13 -31 -13 -10 -30 12 -9 18 -20 14 -25 -4 -5 0 -3 8 3 22 16 42 3 27
-17 -17 -21 -47 -24 -47 -5 0 9 -7 18 -15 21 -8 4 -12 11 -8 18 4 6 -1 4 -12
-4 -17 -14 -17 -13 -10 10 4 14 13 35 21 47 12 20 12 22 -1 17 -8 -4 -15 -12
-15 -18 0 -7 -9 -22 -20 -34 -12 -12 -16 -22 -10 -22 6 0 8 -5 4 -11 -4 -7 -9
-7 -13 -2 -8 12 -49 23 -54 14 -2 -3 -2 0 0 8 2 9 -2 11 -13 7 -14 -5 -15 -4
-4 9 8 10 9 15 1 15 -6 0 -11 7 -11 15 0 8 -4 15 -10 15 -5 0 -7 -7 -4 -15 4
-8 1 -15 -5 -15 -6 0 -11 5 -11 11 0 8 -6 7 -17 -2 -14 -12 -14 -11 1 13 10
16 16 34 13 41 -3 8 4 22 15 32 16 13 18 19 8 25 -10 6 -9 9 1 13 8 3 3 6 -11
6 -14 0 -43 -8 -64 -18 -36 -17 -37 -19 -17 -26 12 -3 19 -11 16 -16 -4 -5 -2
-9 4 -9 18 0 22 19 5 28 -14 8 -12 10 11 16 15 4 30 5 33 1 3 -3 -3 -5 -12 -5
-11 0 -16 -5 -13 -14 8 -21 -13 -35 -44 -29 -27 5 -35 -2 -30 -29 0 -5 -6 -8
-14 -8 -24 0 -29 -1 -49 -12 -18 -10 -17 -8 2 17 24 30 30 54 10 37 -10 -8
-13 -3 -14 19 -1 19 4 29 13 29 7 0 16 7 19 15 4 8 13 15 21 15 8 0 12 -4 9
-8z m-2991 -20 c-3 -3 -11 0 -18 7 -9 10 -8 11 6 5 10 -3 15 -9 12 -12z m65 8
c0 -5 -5 -10 -11 -10 -5 0 -7 5 -4 10 3 6 8 10 11 10 2 0 4 -4 4 -10z m2325
-8 c-3 -3 -11 0 -18 7 -9 10 -8 11 6 5 10 -3 15 -9 12 -12z m-2191 -1 c3 -5
-5 -11 -19 -13 -28 -6 -35 8 -7 15 9 3 18 5 19 6 1 0 4 -3 7 -8z m2233 -43
c-2 -13 -4 -5 -4 17 -1 22 1 32 4 23 2 -10 2 -28 0 -40z m448 12 c-3 -5 -10
-10 -16 -10 -5 0 -9 5 -9 10 0 6 7 10 16 10 8 0 12 -4 9 -10z m45 -4 c0 -2 -7
-6 -15 -10 -8 -3 -15 -1 -15 4 0 6 7 10 15 10 8 0 15 -2 15 -4z m-2710 -16 c0
-5 -4 -10 -10 -10 -5 0 -10 5 -10 10 0 6 5 10 10 10 6 0 10 -4 10 -10z m-35
-10 c3 -5 2 -10 -4 -10 -5 0 -13 5 -16 10 -3 6 -2 10 4 10 5 0 13 -4 16 -10z
m2635 6 c0 -2 -7 -6 -15 -10 -8 -3 -15 -1 -15 4 0 6 7 10 15 10 8 0 15 -2 15
-4z m850 -6 c0 -5 -2 -10 -4 -10 -3 0 -8 5 -11 10 -3 6 -1 10 4 10 6 0 11 -4
11 -10z m-759 -9 c-7 -5 -11 -13 -7 -19 4 -6 -2 -8 -14 -5 -25 7 -26 20 -2 26
29 8 38 7 23 -2z m637 -10 c9 -5 -1 -8 -27 -8 -22 0 -48 -6 -57 -14 -14 -12
-14 -14 2 -26 17 -12 17 -13 -2 -13 -11 0 -25 -5 -32 -12 -9 -9 -12 -7 -12 11
0 12 -4 19 -10 16 -5 -3 -10 -4 -10 -1 0 9 100 53 125 55 6 0 16 -3 23 -8z
m-2206 -73 c-4 -4 -8 12 -9 35 l-1 42 8 -35 c5 -19 6 -38 2 -42z m1058 62 c0
-5 -10 -10 -22 -9 -22 0 -22 1 -3 9 11 5 21 9 23 9 1 1 2 -3 2 -9z m1194 -35
c-3 -7 -23 -20 -45 -30 -44 -20 -48 -29 -18 -45 11 -7 18 -14 15 -17 -8 -8
-46 27 -46 43 0 7 -8 15 -17 17 -10 3 -2 6 17 7 32 1 87 18 66 19 -5 1 -3 8 4
16 6 8 9 20 5 27 -4 7 0 5 9 -5 8 -11 12 -25 10 -32z m-3354 30 c0 -14 -51
-24 -72 -15 -22 10 -21 10 5 7 15 -3 30 0 33 4 6 10 34 12 34 4z m3428 -4 c14
5 27 7 30 4 4 -3 -4 -8 -17 -12 -14 -4 -20 -11 -16 -20 3 -11 1 -13 -10 -10
-8 4 -23 -5 -35 -20 l-20 -26 0 24 c0 47 11 69 28 60 9 -5 26 -5 40 0z m-717
-20 c-9 -6 -10 -11 -2 -15 6 -4 11 -13 11 -19 0 -7 -7 -3 -15 7 -11 15 -12 23
-3 33 6 7 13 11 17 8 3 -3 -1 -10 -8 -14z m-556 -20 c3 -6 -6 -8 -20 -7 -34 4
-40 11 -10 14 13 1 27 -2 30 -7z m535 -16 c12 -19 12 -19 -6 -4 -11 9 -34 15
-51 14 -18 -2 -33 1 -33 6 0 4 18 7 39 6 27 -1 43 -7 51 -22z m-2270 4 c0 -5
-11 -9 -25 -9 -33 0 -33 15 0 16 14 1 25 -2 25 -7z m3005 -7 c-3 -3 -11 0 -18
7 -9 10 -8 11 6 5 10 -3 15 -9 12 -12z m-997 -1 c7 -1 11 -5 8 -9 -7 -11 -76
-14 -76 -3 0 11 20 19 40 15 8 -1 21 -3 28 -3z m-271 -21 c-1 -11 -5 -20 -9
-20 -10 0 -10 4 -2 24 8 22 13 20 11 -4z m30 -17 c-3 -10 -5 -4 -5 12 0 17 2
24 5 18 2 -7 2 -21 0 -30z m-1050 5 c-3 -8 -6 -5 -6 6 -1 11 2 17 5 13 3 -3 4
-12 1 -19z m-682 2 c-3 -5 -10 -10 -16 -10 -5 0 -9 5 -9 10 0 6 7 10 16 10 8
0 12 -4 9 -10z m2065 -3 c8 0 25 3 38 7 13 5 22 3 22 -3 0 -6 -10 -11 -22 -12
-23 0 -23 0 -2 -9 25 -10 38 -36 20 -43 -17 -7 -68 3 -85 17 -7 6 -19 11 -25
11 -12 0 -16 14 -8 33 3 9 12 11 26 7 11 -4 28 -7 36 -8z m140 3 c0 -5 -17 -9
-37 -9 -38 1 -38 1 -8 9 43 11 45 11 45 0z m-2251 -10 c-10 -7 -49 -2 -49 5 0
2 14 3 31 3 17 -1 25 -4 18 -8z m1738 -42 c-3 -7 -5 -2 -5 12 0 14 2 19 5 13
2 -7 2 -19 0 -25z m-1632 12 c3 -5 1 -10 -4 -10 -6 0 -11 5 -11 10 0 6 2 10 4
10 3 0 8 -4 11 -10z m-145 -10 c-18 -12 -43 -13 -36 -2 2 4 15 8 28 9 18 2 19
0 8 -7z m1822 -22 c-8 -8 -9 -4 -5 13 4 13 8 18 11 10 2 -7 -1 -18 -6 -23z
m541 20 c-2 -5 8 -8 23 -8 15 0 36 -7 46 -17 12 -10 18 -12 18 -4 0 7 5 9 10
6 6 -3 10 2 11 12 0 10 3 13 5 7 3 -6 17 -9 32 -7 19 3 23 2 14 -5 -8 -5 -13
-13 -12 -18 1 -5 -13 -12 -30 -17 -36 -9 -51 -35 -26 -49 9 -5 14 -13 11 -18
-6 -10 30 -8 77 5 16 4 25 12 22 20 -3 7 5 21 18 30 l23 17 -25 -7 c-19 -6
-22 -4 -14 4 14 15 67 3 57 -12 -4 -6 8 -1 26 12 18 13 35 20 38 17 4 -3 1 -6
-6 -6 -7 0 -9 -5 -5 -12 4 -7 3 -8 -4 -4 -6 4 -17 -2 -24 -14 -7 -11 -19 -20
-26 -20 -7 0 -11 -4 -8 -9 3 -4 -1 -17 -9 -27 -13 -18 -14 -18 -8 5 7 26 4 26
-50 -12 -21 -14 -27 -25 -23 -41 l5 -21 -17 21 c-16 21 -25 25 -84 38 -25 6
-26 8 -16 37 6 17 17 33 25 36 19 8 -2 32 -27 30 -15 -1 -17 -4 -7 -16 10 -12
8 -14 -11 -9 -12 4 -20 2 -16 -3 3 -5 -2 -9 -11 -9 -9 0 -23 -16 -31 -35 -8
-19 -18 -35 -23 -35 -5 0 -17 -3 -27 -7 -12 -4 -15 -3 -10 5 4 7 15 12 25 12
11 0 21 9 24 22 8 29 6 30 -27 12 -32 -16 -39 -15 -27 4 4 7 21 14 38 15 18 1
29 7 26 13 -2 6 3 14 11 17 9 4 16 13 16 22 0 11 -7 14 -25 11 -15 -3 -25 0
-26 7 0 9 -2 9 -5 1 -3 -7 -14 -10 -24 -7 -11 3 -26 -2 -35 -10 -17 -18 -20
-37 -5 -37 6 0 10 -5 10 -10 0 -7 -6 -7 -19 0 -13 7 -22 7 -26 0 -3 -5 1 -10
9 -10 8 0 17 -4 21 -9 8 -13 -36 -4 -49 9 -8 8 -6 15 7 25 13 10 15 14 5 18
-9 4 -7 6 4 6 9 1 23 7 31 15 7 8 25 16 38 19 37 6 98 3 92 -5z m442 -7 c3 -5
2 -12 -3 -15 -5 -3 -9 1 -9 9 0 17 3 19 12 6z m194 -24 c12 3 12 2 -2 -7 -14
-9 -21 -9 -32 0 -8 6 -23 9 -34 5 -10 -3 -22 -1 -26 4 -3 6 0 8 8 5 8 -3 18
-1 22 5 4 8 13 7 27 -3 11 -8 28 -12 37 -9z m-169 -27 c0 -5 -5 -10 -11 -10
-5 0 -7 5 -4 10 3 6 8 10 11 10 2 0 4 -4 4 -10z m-140 -49 c3 -2 -3 -1 -12 2
-13 4 -20 -3 -30 -28 -8 -23 -15 -30 -19 -23 -6 9 -10 8 -15 -5 -3 -9 -12 -17
-20 -17 -8 0 -14 -4 -14 -10 0 -5 -5 -10 -10 -10 -6 0 -3 11 6 25 9 14 20 23
24 20 4 -2 16 6 28 18 20 22 22 25 22 48 0 10 14 3 40 -20z m290 22 c0 -5 3
-18 6 -30 6 -20 2 -23 -22 -23 -16 -1 -42 -6 -57 -13 l-29 -12 23 -29 22 -28
-23 7 c-12 4 -25 3 -29 -1 -3 -5 -17 -15 -29 -22 -20 -11 -22 -11 -15 0 5 7
19 30 31 50 16 25 37 42 66 53 40 15 59 45 29 45 -7 0 -13 -4 -13 -10 0 -5 -3
-9 -7 -9 -22 4 -44 -2 -39 -10 3 -5 -12 -13 -35 -19 -30 -8 -39 -7 -35 1 4 7
9 20 12 30 6 17 34 24 34 8 0 -10 48 -2 56 10 6 11 54 12 54 2z m-2083 -65
c-3 -7 -5 -2 -5 12 0 14 2 19 5 13 2 -7 2 -19 0 -25z m1850 10 c-3 -8 -6 -5
-6 6 -1 11 2 17 5 13 3 -3 4 -12 1 -19z m-3463 -63 c2 -38 0 -62 -5 -54 -8 14
-11 134 -3 126 3 -2 6 -35 8 -72z m3121 55 c3 -5 1 -10 -4 -10 -6 0 -11 5 -11
10 0 6 2 10 4 10 3 0 8 -4 11 -10z m405 6 c0 -3 -4 -8 -10 -11 -5 -3 -10 -1
-10 4 0 6 5 11 10 11 6 0 10 -2 10 -4z m-2040 -39 c0 -17 2 -19 9 -7 6 8 7 18
5 22 -3 4 0 8 5 8 14 0 14 -27 0 -35 -6 -4 -8 -14 -4 -24 4 -11 3 -13 -5 -5
-14 14 -32 76 -19 69 5 -4 9 -16 9 -28z m-820 -127 c5 -30 24 -142 43 -247 18
-106 30 -193 25 -193 -4 0 -8 10 -9 23 0 12 -5 31 -10 42 -7 15 -8 11 -5 -17
4 -36 -1 -43 -26 -39 -5 0 -8 -3 -8 -8 0 -14 30 -22 31 -8 0 9 2 9 5 0 3 -7
12 -9 20 -6 8 3 14 -1 14 -11 0 -9 -7 -16 -15 -16 -8 0 -15 4 -15 9 0 5 -11 8
-24 5 -34 -6 -42 13 -18 39 22 25 19 49 -6 40 -15 -6 -16 -5 -2 12 13 17 13
18 0 13 -13 -5 -16 10 -19 96 -5 131 -5 131 -18 196 -10 45 -12 190 -4 210 4
10 32 -86 41 -140z m2775 111 c-4 -13 0 -23 12 -30 10 -6 13 -11 8 -11 -17 0
-35 22 -35 42 0 10 5 18 11 18 6 0 8 -8 4 -19z m-2826 -406 c11 -115 23 -233
26 -261 6 -56 3 -59 -82 -83 -28 -8 -31 -7 -36 15 -2 13 -1 24 3 24 6 0 6 43
0 65 -2 6 0 35 3 65 4 30 12 132 17 225 12 205 22 318 31 335 1 3 6 -35 10
-85 4 -49 17 -184 28 -300z m3075 305 c6 -8 1 -7 -11 4 -13 10 -20 23 -16 29
4 7 8 6 11 -3 3 -8 10 -22 16 -30z m-3154 -12 c0 -19 -2 -20 -10 -8 -13 19
-13 30 0 30 6 0 10 -10 10 -22z m2040 -34 c0 -8 4 -13 8 -10 12 7 38 -12 29
-21 -5 -4 -12 -1 -17 7 -9 13 -10 13 -10 0 -1 -9 -6 -5 -15 10 -17 30 -19 44
-5 35 6 -3 10 -13 10 -21z m-1170 6 c0 -5 -5 -10 -11 -10 -5 0 -7 5 -4 10 3 6
8 10 11 10 2 0 4 -4 4 -10z m2062 -5 c3 3 5 -2 5 -9 0 -11 -5 -12 -18 -5 -10
5 -21 14 -25 20 -5 8 -1 8 13 0 11 -6 22 -8 25 -6z m-1662 -45 c0 -5 -4 -10
-10 -10 -5 0 -10 5 -10 10 0 6 5 10 10 10 6 0 10 -4 10 -10z m-1793 -32 c-3
-7 -5 -2 -5 12 0 14 2 19 5 13 2 -7 2 -19 0 -25z m510 -15 c-3 -10 -5 -2 -5
17 0 19 2 27 5 18 2 -10 2 -26 0 -35z m2688 -18 c-16 -14 -41 -25 -55 -25 -18
0 -21 3 -11 9 11 7 10 10 -5 14 -12 3 -7 5 13 6 17 0 35 6 38 11 3 6 16 10 28
10 21 -1 20 -2 -8 -25z m-1570 -5 c3 -5 1 -10 -4 -10 -6 0 -11 5 -11 10 0 6 2
10 4 10 3 0 8 -4 11 -10z m-1128 -42 c-3 -8 -6 -5 -6 6 -1 11 2 17 5 13 3 -3
4 -12 1 -19z m3303 -2 c0 -3 -4 -8 -10 -11 -5 -3 -10 -1 -10 4 0 6 5 11 10 11
6 0 10 -2 10 -4z m-2673 -43 c-3 -10 -5 -4 -5 12 0 17 2 24 5 18 2 -7 2 -21 0
-30z m2668 -31 c5 -13 3 -14 -6 -5 -6 6 -18 9 -25 6 -10 -3 -12 0 -8 10 7 19
30 12 39 -11z m-2655 -42 c0 -5 -4 -10 -10 -10 -5 0 -10 5 -10 10 0 6 5 10 10
10 6 0 10 -4 10 -10z m1291 -63 c-13 -13 -26 -3 -16 12 3 6 11 8 17 5 6 -4 6
-10 -1 -17z m15 -63 c-4 -9 -9 -14 -13 -10 -3 3 -14 -1 -24 -10 -16 -15 -17
-14 -12 4 2 11 14 24 26 30 26 12 32 8 23 -14z m106 -47 c32 -12 55 -23 53
-25 -3 -3 0 -11 6 -18 6 -7 7 -19 3 -26 -15 -23 -14 -46 1 -58 17 -14 20 -50
5 -50 -14 0 -13 -27 1 -36 6 -3 15 -1 19 5 4 7 13 13 21 15 23 4 83 38 91 51
11 18 69 4 160 -39 42 -20 81 -36 86 -36 6 0 9 -15 8 -34 -1 -23 3 -32 11 -29
7 3 11 10 10 16 -3 15 92 15 101 1 7 -10 91 -45 139 -59 33 -9 64 -53 53 -73
-5 -9 -16 -40 -25 -68 -9 -31 -28 -62 -46 -78 -29 -26 -31 -27 -50 -10 -19 17
-27 40 -10 29 16 -9 81 60 81 87 0 38 -9 40 -56 7 -25 -17 -58 -35 -74 -41
-17 -5 -30 -13 -30 -17 0 -4 -27 -20 -60 -36 -58 -29 -60 -32 -80 -95 -12 -36
-25 -73 -31 -82 -5 -10 -9 -25 -9 -33 0 -9 -4 -13 -10 -10 -5 3 -20 -3 -32
-14 -29 -27 -42 -26 -56 4 -10 23 -9 25 11 25 41 1 89 55 80 91 -5 16 -9 16
-54 -9 -27 -15 -52 -35 -55 -45 -5 -17 -7 -17 -23 -3 -14 13 -24 14 -48 6 -21
-8 -38 -7 -59 1 -32 14 -43 17 -61 20 -10 2 -94 59 -109 74 -28 27 -20 39 48
72 37 18 68 38 68 45 0 9 -3 9 -10 -2 -7 -10 -10 -11 -10 -2 0 9 -8 9 -31 -3
-17 -9 -33 -14 -36 -11 -3 3 -17 -6 -31 -21 -19 -21 -28 -24 -41 -16 -10 6
-25 7 -41 1 -17 -6 -38 -4 -70 8 -62 23 -71 33 -70 68 4 61 1 68 -20 61 -15
-5 -23 0 -32 20 -11 24 -9 29 31 67 34 34 44 39 52 27 12 -20 12 -22 -11 -47
-22 -23 -26 -42 -10 -42 6 0 32 10 58 22 47 22 74 47 66 60 -6 10 15 50 34 64
18 13 6 38 -14 30 -8 -3 -14 -1 -14 4 0 6 -8 10 -19 10 -28 0 -45 50 -35 107
4 27 7 51 6 56 -1 4 1 6 6 5 20 -5 72 15 72 29 0 11 5 13 18 8 9 -4 43 -17 74
-28z m-1438 -42 c-5 -20 -9 -24 -18 -14 -8 8 -8 13 2 16 6 3 12 12 12 21 0 8
2 13 5 10 4 -3 3 -18 -1 -33z m-7 -67 c-3 -8 -6 -5 -6 6 -1 11 2 17 5 13 3 -3
4 -12 1 -19z m-802 -138 c-27 -12 -43 -12 -25 0 8 5 22 9 30 9 10 0 8 -3 -5
-9z m1347 -8 c6 -6 22 -12 35 -12 13 0 23 -5 23 -11 0 -8 -16 -10 -50 -6 -29
4 -52 2 -56 -4 -8 -13 -45 -5 -120 27 l-59 25 107 -3 c68 -2 112 -8 120 -16z
m-245 -58 c-3 -3 -12 -4 -19 -1 -8 3 -5 6 6 6 11 1 17 -2 13 -5z m178 -14 c14
-5 6 -7 -23 -6 -23 1 -48 8 -55 15 -10 11 -6 12 23 6 19 -4 44 -11 55 -15z
m103 3 c-10 -2 -28 -2 -40 0 -13 2 -5 4 17 4 22 1 32 -1 23 -4z m-143 -22 c28
-5 57 -10 65 -10 10 -1 11 -4 3 -12 -14 -14 -103 -3 -103 12 0 6 -10 8 -22 4
-19 -5 -20 -4 -8 5 12 9 8 10 -17 5 -17 -3 -34 -2 -37 3 -7 11 42 8 119 -7z
m1665 -317 c0 -8 -5 -12 -10 -9 -6 4 -8 11 -5 16 9 14 15 11 15 -7z"/>
<path d="M238 2763 c7 -3 16 -2 19 1 4 3 -2 6 -13 5 -11 0 -14 -3 -6 -6z"/>
<path d="M2322 2718 c3 -7 13 -15 24 -17 16 -3 17 -1 5 13 -16 19 -34 21 -29
4z"/>
<path d="M25 2710 c-3 -5 -1 -10 4 -10 6 0 11 5 11 10 0 6 -2 10 -4 10 -3 0
-8 -4 -11 -10z"/>
<path d="M300 2618 c-12 -22 -12 -22 6 -6 10 10 15 20 12 24 -4 3 -12 -5 -18
-18z"/>
<path d="M636 2585 c-3 -8 -1 -15 4 -15 13 0 22 18 11 24 -5 3 -11 -1 -15 -9z"/>
<path d="M2090 2470 c-9 -6 -10 -10 -3 -10 6 0 15 5 18 10 8 12 4 12 -15 0z"/>
<path d="M2248 2448 c5 -5 16 -8 23 -6 8 3 3 7 -10 11 -17 4 -21 3 -13 -5z"/>
<path d="M2507 2213 c3 -10 11 -25 17 -35 10 -14 14 -14 31 -1 19 14 19 15 -5
8 -24 -7 -24 -7 -5 9 20 15 20 15 -2 16 -13 0 -23 5 -23 10 0 6 -4 10 -10 10
-5 0 -7 -8 -3 -17z"/>
<path d="M2598 2213 c7 -3 16 -2 19 1 4 3 -2 6 -13 5 -11 0 -14 -3 -6 -6z"/>
<path d="M2080 2085 c0 -8 4 -15 10 -15 5 0 7 7 4 15 -4 8 -8 15 -10 15 -2 0
-4 -7 -4 -15z"/>
<path d="M2076 2023 c-11 -35 -11 -338 0 -356 7 -13 10 36 10 178 0 107 -1
195 -2 195 -2 0 -5 -8 -8 -17z"/>
<path d="M2246 1871 c-4 -7 -5 -15 -2 -18 9 -9 19 4 14 18 -4 11 -6 11 -12 0z"/>
<path d="M2310 1839 c0 -5 5 -7 10 -4 6 3 10 8 10 11 0 2 -4 4 -10 4 -5 0 -10
-5 -10 -11z"/>
<path d="M2250 1829 c0 -5 5 -7 10 -4 6 3 10 8 10 11 0 2 -4 4 -10 4 -5 0 -10
-5 -10 -11z"/>
<path d="M2070 1455 c0 -8 4 -15 10 -15 5 0 7 7 4 15 -4 8 -8 15 -10 15 -2 0
-4 -7 -4 -15z"/>
<path d="M2096 1403 c-12 -12 -5 -23 14 -23 11 0 20 4 20 9 0 11 -26 22 -34
14z"/>
<path d="M1280 2421 c0 -6 4 -13 10 -16 6 -3 7 1 4 9 -7 18 -14 21 -14 7z"/>
<path d="M1486 2351 c-5 -7 -5 -15 -2 -18 3 -3 -1 -17 -8 -32 -7 -14 -14 -48
-15 -76 -1 -27 -4 -59 -6 -70 -4 -17 -3 -16 6 3 13 23 29 30 29 10 0 -6 2 -9
4 -7 2 2 1 24 -4 49 -5 30 -4 57 4 81 13 37 6 84 -8 60z"/>
<path d="M1521 2330 c0 -8 4 -24 9 -35 5 -13 9 -14 9 -5 0 8 -4 24 -9 35 -5
13 -9 14 -9 5z"/>
<path d="M911 2224 c0 -11 3 -14 6 -6 3 7 2 16 -1 19 -3 4 -6 -2 -5 -13z"/>
<path d="M845 2213 c18 -44 18 -46 7 -39 -7 4 -12 14 -12 22 0 8 -4 14 -9 14
-5 0 -9 -18 -9 -41 -1 -34 1 -39 14 -28 12 10 13 9 9 -4 -4 -10 1 -18 15 -22
15 -5 18 -10 11 -19 -16 -19 3 -38 35 -34 26 3 29 7 27 36 -1 25 3 32 15 30 8
-2 14 -7 13 -12 -5 -17 22 -24 51 -14 15 6 35 8 43 5 10 -4 12 -1 8 10 -5 12
-3 14 7 8 9 -5 11 -4 6 4 -4 6 2 28 15 49 l21 37 -25 -30 c-15 -16 -26 -33
-27 -36 0 -10 -50 2 -50 12 0 5 -9 4 -19 -3 -15 -9 -22 -8 -36 5 -9 9 -23 17
-31 17 -8 0 -14 5 -14 10 0 22 -26 8 -28 -15 -1 -21 3 -25 26 -26 l27 -1 -30
-7 c-28 -6 -30 -4 -35 29 -3 22 0 39 8 45 9 7 6 10 -13 10 -16 0 -23 -4 -20
-12z m160 -73 c-3 -5 -14 -10 -23 -10 -15 0 -15 2 -2 10 20 13 33 13 25 0z
m-80 -40 c-3 -5 -10 -10 -16 -10 -5 0 -9 5 -9 10 0 6 7 10 16 10 8 0 12 -4 9
-10z"/>
<path d="M661 2141 c-14 -4 -26 -12 -29 -19 -3 -10 10 -12 59 -6 72 7 77 10
62 25 -8 8 -17 8 -30 0 -11 -5 -24 -6 -29 -2 -5 4 -20 5 -33 2z"/>
<path d="M1131 2064 c0 -11 3 -14 6 -6 3 7 2 16 -1 19 -3 4 -6 -2 -5 -13z"/>
<path d="M1037 2021 c-4 -17 -3 -21 5 -13 5 5 8 16 6 23 -3 8 -7 3 -11 -10z"/>
<path d="M1151 2014 c0 -11 3 -14 6 -6 3 7 2 16 -1 19 -3 4 -6 -2 -5 -13z"/>
<path d="M1241 1934 c0 -11 3 -14 6 -6 3 7 2 16 -1 19 -3 4 -6 -2 -5 -13z"/>
<path d="M1076 1920 c8 -30 34 -69 34 -52 0 6 -9 26 -21 44 -17 28 -19 29 -13
8z"/>
<path d="M1120 1832 c0 -5 7 -15 15 -22 8 -7 15 -9 15 -6 0 4 -7 14 -15 22 -8
9 -15 11 -15 6z"/>
<path d="M1400 1809 c0 -5 5 -7 10 -4 6 3 10 8 10 11 0 2 -4 4 -10 4 -5 0 -10
-5 -10 -11z"/>
<path d="M1391 1743 c-6 -21 -11 -45 -12 -53 0 -10 -3 -8 -9 5 -8 19 -9 19 -9
-4 -1 -17 3 -22 15 -17 9 3 18 6 20 6 2 0 4 18 4 39 0 22 5 41 12 43 9 3 9 6
1 11 -8 5 -16 -6 -22 -30z"/>
<path d="M1531 1744 c0 -11 3 -14 6 -6 3 7 2 16 -1 19 -3 4 -6 -2 -5 -13z"/>
<path d="M1023 1702 c10 -10 17 -26 17 -35 0 -9 5 -17 10 -17 12 0 12 0 -1 39
-6 17 -18 31 -27 31 -13 0 -13 -2 1 -18z"/>
<path d="M1150 1680 c8 -5 22 -9 30 -9 10 0 8 3 -5 9 -27 12 -43 12 -25 0z"/>
<path d="M925 1672 c-4 -4 19 -32 27 -32 2 0 4 8 4 18 0 17 -19 26 -31 14z"/>
<path d="M980 1670 c0 -5 5 -10 10 -10 6 0 10 5 10 10 0 6 -4 10 -10 10 -5 0
-10 -4 -10 -10z"/>
<path d="M900 1639 c0 -5 5 -7 10 -4 6 3 10 8 10 11 0 2 -4 4 -10 4 -5 0 -10
-5 -10 -11z"/>
<path d="M1060 1630 c0 -5 5 -10 10 -10 6 0 10 5 10 10 0 6 -4 10 -10 10 -5 0
-10 -4 -10 -10z"/>
<path d="M1000 1594 c0 -14 4 -23 9 -20 5 3 7 15 4 26 -7 28 -13 25 -13 -6z"/>
<path d="M1038 1563 c7 -3 16 -2 19 1 4 3 -2 6 -13 5 -11 0 -14 -3 -6 -6z"/>
<path d="M2421 2463 c-1 -18 4 -23 23 -23 20 0 23 4 18 23 -5 18 -7 19 -10 5
-2 -10 -7 -18 -12 -18 -5 0 -11 8 -13 18 -4 13 -5 11 -6 -5z"/>
<path d="M275 2390 c3 -5 8 -10 11 -10 2 0 4 5 4 10 0 6 -5 10 -11 10 -5 0 -7
-4 -4 -10z"/>
<path d="M2805 2190 c3 -5 8 -10 11 -10 2 0 4 5 4 10 0 6 -5 10 -11 10 -5 0
-7 -4 -4 -10z"/>
<path d="M3569 2010 c-13 -10 -19 -19 -12 -20 11 0 43 26 43 36 0 8 -8 4 -31
-16z"/>
<path d="M3005 1900 c3 -5 13 -10 21 -10 8 0 12 5 9 10 -3 6 -13 10 -21 10 -8
0 -12 -4 -9 -10z"/>
<path d="M3310 1756 c0 -9 30 -14 35 -6 4 6 -3 10 -14 10 -12 0 -21 -2 -21 -4z"/>
<path d="M831 1264 c0 -11 3 -14 6 -6 3 7 2 16 -1 19 -3 4 -6 -2 -5 -13z"/>
<path d="M2725 990 c-3 -5 3 -10 14 -10 12 0 21 5 21 10 0 6 -6 10 -14 10 -8
0 -18 -4 -21 -10z"/>
<path d="M2763 869 c-29 -11 -32 -50 -3 -42 25 7 41 26 32 40 -4 6 -15 7 -29
2z"/>
<path d="M2672 839 c-22 -8 -50 -54 -40 -64 3 -3 26 4 52 17 33 16 46 28 46
42 -1 21 -1 21 -12 1 -10 -16 -12 -17 -17 -3 -5 12 -12 13 -29 7z"/>
<path d="M3083 770 c-39 -21 -53 -25 -53 -14 0 8 -7 14 -16 14 -8 0 -12 -5 -9
-10 9 -15 -14 -34 -81 -68 -67 -34 -96 -63 -84 -83 6 -9 12 -10 22 -3 7 6 29
17 48 24 62 25 251 141 247 153 -6 19 -21 17 -74 -13z"/>
<path d="M2687 749 c7 -7 15 -10 18 -7 3 3 -2 9 -12 12 -14 6 -15 5 -6 -5z"/>
<path d="M2615 705 c-21 -13 -52 -27 -67 -30 -15 -4 -30 -11 -33 -15 -6 -10
60 11 95 30 12 6 26 9 33 7 7 -3 -8 -14 -33 -25 -25 -11 -39 -21 -32 -21 15
-1 112 47 112 55 0 3 -10 2 -22 -1 -17 -6 -20 -4 -15 9 8 20 10 20 -38 -9z"/>
<path d="M2757 709 c7 -7 15 -10 18 -7 3 3 -2 9 -12 12 -14 6 -15 5 -6 -5z"/>
<path d="M2668 674 c-39 -21 -35 -28 5 -8 37 19 44 24 31 24 -5 -1 -21 -8 -36
-16z"/>
<path d="M2670 650 c-36 -19 -48 -29 -35 -30 l20 -1 -20 -9 c-11 -5 -15 -9 -8
-9 16 -1 113 43 113 51 0 4 -8 5 -17 2 -15 -5 -15 -3 1 10 30 24 7 18 -54 -14z
m17 -16 c-16 -9 -31 -13 -34 -10 -3 3 5 10 18 15 37 15 47 12 16 -5z"/>
<path d="M2588 613 c7 -3 16 -2 19 1 4 3 -2 6 -13 5 -11 0 -14 -3 -6 -6z"/>
<path d="M2902 569 c-18 -12 -31 -23 -29 -26 5 -4 77 36 77 43 0 9 -16 3 -48
-17z"/>
<path d="M2908 537 c-32 -17 -56 -32 -54 -35 4 -3 87 38 116 57 31 22 -7 8
-62 -22z"/>
<path d="M2930 515 c-36 -19 -62 -34 -58 -35 12 0 118 52 124 61 7 12 7 12
-66 -26z"/>
<path d="M2820 528 c-14 -6 -20 -12 -13 -15 7 -2 23 3 35 11 25 18 15 20 -22
4z"/>
<path d="M2952 499 c-40 -21 -68 -39 -62 -39 14 0 101 43 133 65 38 26 4 14
-71 -26z"/>
<path d="M2982 484 c-35 -19 -59 -34 -53 -34 16 0 108 48 116 60 8 13 9 14
-63 -26z"/>
<path d="M3060 3270 c0 -5 5 -10 10 -10 6 0 10 5 10 10 0 6 -4 10 -10 10 -5 0
-10 -4 -10 -10z"/>
<path d="M3120 3256 c0 -9 5 -16 10 -16 6 0 10 4 10 9 0 6 -4 13 -10 16 -5 3
-10 -1 -10 -9z"/>
<path d="M2960 3220 c0 -5 5 -10 10 -10 6 0 10 5 10 10 0 6 -4 10 -10 10 -5 0
-10 -4 -10 -10z"/>
<path d="M2878 3209 c-6 -18 15 -59 30 -59 9 0 8 8 -4 33 -21 41 -21 41 -26
26z"/>
<path d="M2640 3186 c0 -9 30 -14 35 -6 4 6 -3 10 -14 10 -12 0 -21 -2 -21 -4z"/>
<path d="M296 3162 c-3 -6 10 -12 32 -14 57 -8 61 7 5 18 -17 3 -33 2 -37 -4z"/>
<path d="M418 3160 c13 -6 31 -6 45 0 18 7 14 9 -23 9 -37 0 -41 -2 -22 -9z"/>
<path d="M2780 3157 c-21 -8 -22 -11 -7 -14 9 -3 15 -9 12 -14 -10 -15 5 -10
22 7 21 21 4 35 -27 21z"/>
<path d="M2840 3160 c0 -5 5 -10 10 -10 6 0 10 5 10 10 0 6 -4 10 -10 10 -5 0
-10 -4 -10 -10z"/>
<path d="M2584 3139 c12 -8 25 -8 40 -1 18 9 16 11 -19 11 -33 0 -37 -1 -21
-10z"/>
<path d="M2920 3130 c0 -5 5 -10 10 -10 6 0 10 5 10 10 0 6 -4 10 -10 10 -5 0
-10 -4 -10 -10z"/>
<path d="M2560 3109 c0 -5 5 -7 10 -4 6 3 10 8 10 11 0 2 -4 4 -10 4 -5 0 -10
-5 -10 -11z"/>
<path d="M2495 3090 c-3 -5 -17 -10 -31 -10 -13 0 -24 -5 -24 -11 0 -6 11 -9
24 -7 13 1 30 -3 39 -10 19 -16 31 -1 22 28 -7 22 -20 26 -30 10z"/>
<path d="M2070 3070 c0 -5 7 -7 15 -4 8 4 15 8 15 10 0 2 -7 4 -15 4 -8 0 -15
-4 -15 -10z"/>
<path d="M1401 3044 c0 -11 3 -14 6 -6 3 7 2 16 -1 19 -3 4 -6 -2 -5 -13z"/>
<path d="M2070 3030 c0 -5 7 -7 15 -4 8 4 15 8 15 10 0 2 -7 4 -15 4 -8 0 -15
-4 -15 -10z"/>
<path d="M2280 3030 l-45 -7 40 -1 c22 0 49 3 60 8 23 10 9 10 -55 0z"/>
<path d="M340 3010 c0 -5 7 -10 15 -10 8 0 15 5 15 10 0 6 -7 10 -15 10 -8 0
-15 -4 -15 -10z"/>
<path d="M2230 2995 c-9 -10 -9 -15 -1 -15 6 0 11 4 11 9 0 6 19 12 43 14 l42
4 -41 1 c-27 1 -46 -3 -54 -13z"/>
<path d="M1371 2981 c-10 -7 -9 -9 3 -14 9 -4 16 -23 19 -49 4 -38 4 -37 4 10
-1 56 -5 66 -26 53z"/>
<path d="M1415 2970 c3 -5 8 -10 11 -10 2 0 4 5 4 10 0 6 -5 10 -11 10 -5 0
-7 -4 -4 -10z"/>
<path d="M2060 2958 c0 -15 8 -18 53 -16 l52 1 -45 4 c-24 3 -48 10 -52 16 -5
8 -8 6 -8 -5z"/>
<path d="M2088 2963 c7 -3 16 -2 19 1 4 3 -2 6 -13 5 -11 0 -14 -3 -6 -6z"/>
<path d="M2338 2963 c6 -2 18 -2 25 0 6 3 1 5 -13 5 -14 0 -19 -2 -12 -5z"/>
<path d="M47 2944 c-13 -13 -7 -24 14 -24 11 0 19 5 17 12 -5 14 -22 21 -31
12z"/>
<path d="M0 2930 c0 -5 5 -10 11 -10 5 0 7 5 4 10 -3 6 -8 10 -11 10 -2 0 -4
-4 -4 -10z"/>
<path d="M90 2930 c0 -5 7 -10 15 -10 8 0 15 5 15 10 0 6 -7 10 -15 10 -8 0
-15 -4 -15 -10z"/>
<path d="M1268 2933 c-29 -7 -21 -25 10 -21 15 2 26 7 25 13 -2 12 -12 14 -35
8z"/>
<path d="M1371 2924 c0 -11 3 -14 6 -6 3 7 2 16 -1 19 -3 4 -6 -2 -5 -13z"/>
<path d="M1153 2923 c9 -2 25 -2 35 0 9 3 1 5 -18 5 -19 0 -27 -2 -17 -5z"/>
<path d="M668 2913 c6 -2 18 -2 25 0 6 3 1 5 -13 5 -14 0 -19 -2 -12 -5z"/>
<path d="M755 2900 c-4 -7 6 -10 29 -8 20 1 41 -3 48 -10 7 -7 21 -11 33 -11
16 1 17 2 3 6 -30 8 -20 22 20 26 20 2 0 4 -45 5 -48 1 -85 -2 -88 -8z"/>
<path d="M1188 2903 c6 -2 18 -2 25 0 6 3 1 5 -13 5 -14 0 -19 -2 -12 -5z"/>
<path d="M1340 2881 c-21 -4 -30 -9 -23 -14 11 -7 63 7 63 18 0 3 -1 4 -2 4
-2 -1 -19 -4 -38 -8z"/>
<path d="M67 2869 c7 -7 15 -10 18 -7 3 3 -2 9 -12 12 -14 6 -15 5 -6 -5z"/>
<path d="M154 2872 c3 -6 -2 -13 -11 -15 -16 -4 -16 -5 -1 -6 21 -1 32 15 17
25 -7 4 -9 3 -5 -4z"/>
<path d="M968 2863 c6 -2 18 -2 25 0 6 3 1 5 -13 5 -14 0 -19 -2 -12 -5z"/>
<path d="M1198 2848 c5 -5 16 -8 23 -6 8 3 3 7 -10 11 -17 4 -21 3 -13 -5z"/>
<path d="M988 2843 c7 -3 16 -2 19 1 4 3 -2 6 -13 5 -11 0 -14 -3 -6 -6z"/>
<path d="M1258 2843 c7 -3 16 -2 19 1 4 3 -2 6 -13 5 -11 0 -14 -3 -6 -6z"/>
<path d="M960 2809 c0 -5 5 -7 10 -4 6 3 10 8 10 11 0 2 -4 4 -10 4 -5 0 -10
-5 -10 -11z"/>
<path d="M1000 2809 c0 -9 98 -4 108 5 2 3 -21 5 -52 5 -31 -1 -56 -5 -56 -10z"/>
<path d="M950 2780 c-12 -8 -10 -10 10 -9 14 0 34 4 45 9 17 7 16 9 -10 9 -16
0 -37 -4 -45 -9z"/>
<path d="M1230 2781 c0 -11 39 -25 47 -18 3 3 2 10 -2 16 -8 13 -45 15 -45 2z"/>
<path d="M1048 2773 c7 -3 16 -2 19 1 4 3 -2 6 -13 5 -11 0 -14 -3 -6 -6z"/>
<path d="M1150 2760 c0 -5 7 -10 15 -10 8 0 15 5 15 10 0 6 -7 10 -15 10 -8 0
-15 -4 -15 -10z"/>
<path d="M375 2720 c3 -5 8 -10 11 -10 2 0 4 5 4 10 0 6 -5 10 -11 10 -5 0 -7
-4 -4 -10z"/>
<path d="M1310 2710 c-13 -8 -12 -10 3 -10 9 0 17 5 17 10 0 12 -1 12 -20 0z"/>
<path d="M1347 2679 c7 -7 15 -10 18 -7 3 3 -2 9 -12 12 -14 6 -15 5 -6 -5z"/>
<path d="M1381 2683 c0 -5 4 -17 9 -28 8 -18 9 -17 9 8 1 15 -3 27 -9 27 -5 0
-10 -3 -9 -7z"/>
<path d="M960 2661 c0 -5 5 -13 10 -16 6 -3 10 -2 10 4 0 5 -4 13 -10 16 -5 3
-10 2 -10 -4z"/>
<path d="M1106 2608 c3 -5 10 -6 15 -3 13 9 11 12 -6 12 -8 0 -12 -4 -9 -9z"/>
<path d="M210 1995 c0 -5 7 -30 15 -55 l15 -45 -6 40 c-5 37 -23 82 -24 60z"/>
<path d="M480 1939 c0 -5 -4 -7 -10 -4 -5 3 -10 -3 -10 -15 0 -13 4 -19 11
-14 6 3 15 0 20 -7 6 -10 9 -4 9 19 0 17 -4 32 -10 32 -5 0 -10 -5 -10 -11z"/>
<path d="M403 1923 c-25 -9 -14 -30 12 -25 14 2 24 9 22 15 -4 13 -18 17 -34
10z"/>
<path d="M571 1883 c-16 -17 -12 -23 11 -14 10 3 14 11 10 17 -5 9 -11 8 -21
-3z"/>
<path d="M630 1890 c-20 -6 -21 -8 -5 -8 11 0 29 3 40 8 25 11 -1 11 -35 0z"/>
<path d="M496 1868 c3 -4 -9 -8 -25 -8 -17 0 -31 -5 -31 -11 0 -7 12 -10 30
-7 35 5 40 -14 15 -62 -8 -16 -12 -31 -7 -34 15 -9 63 7 73 25 8 16 5 21 -16
29 -27 10 -36 50 -11 50 29 0 25 18 -4 22 -16 2 -27 1 -24 -4z"/>
<path d="M252 1830 c0 -14 2 -19 5 -12 2 6 2 18 0 25 -3 6 -5 1 -5 -13z"/>
<path d="M2903 1843 c-20 -8 -15 -33 6 -33 16 0 31 18 31 36 0 5 -21 4 -37 -3z"/>
<path d="M350 1828 c0 -12 48 -10 55 2 3 5 -7 8 -25 7 -16 -1 -30 -5 -30 -9z"/>
<path d="M300 1820 c0 -5 5 -10 10 -10 6 0 10 5 10 10 0 6 -4 10 -10 10 -5 0
-10 -4 -10 -10z"/>
<path d="M781 1784 c0 -11 3 -14 6 -6 3 7 2 16 -1 19 -3 4 -6 -2 -5 -13z"/>
<path d="M266 1757 c3 -10 9 -15 12 -12 3 3 0 11 -7 18 -10 9 -11 8 -5 -6z"/>
<path d="M875 1740 c3 -5 8 -10 11 -10 2 0 4 5 4 10 0 6 -5 10 -11 10 -5 0 -7
-4 -4 -10z"/>
<path d="M660 1729 c0 -5 9 -9 20 -9 11 0 20 2 20 4 0 2 -9 6 -20 9 -11 3 -20
1 -20 -4z"/>
<path d="M2875 1700 c-3 -5 3 -10 14 -10 12 0 21 5 21 10 0 6 -6 10 -14 10 -8
0 -18 -4 -21 -10z"/>
<path d="M2802 1680 c0 -14 2 -19 5 -12 2 6 2 18 0 25 -3 6 -5 1 -5 -13z"/>
<path d="M281 1674 c0 -11 3 -14 6 -6 3 7 2 16 -1 19 -3 4 -6 -2 -5 -13z"/>
<path d="M2711 1664 c0 -11 3 -14 6 -6 3 7 2 16 -1 19 -3 4 -6 -2 -5 -13z"/>
<path d="M2870 1660 c0 -5 7 -7 15 -4 8 4 15 8 15 10 0 2 -7 4 -15 4 -8 0 -15
-4 -15 -10z"/>
<path d="M3981 1634 c-12 -27 -11 -28 4 -12 10 9 16 21 13 28 -2 7 -10 -1 -17
-16z"/>
<path d="M2803 1608 c0 -35 1 -38 7 -18 5 14 8 19 9 11 1 -8 4 -12 7 -9 3 4
-1 18 -8 32 -14 26 -14 26 -15 -16z"/>
<path d="M3040 1620 c-13 -8 -13 -10 0 -10 10 0 11 -3 3 -11 -6 -6 -23 -11
-37 -11 -15 0 -29 -4 -32 -9 -3 -5 3 -6 13 -2 15 6 16 4 6 -9 -7 -8 -11 -17
-8 -20 3 -3 -1 -11 -9 -17 -12 -10 -13 -9 -9 9 6 21 5 21 -31 6 -20 -8 -44
-22 -52 -31 -14 -13 -13 -16 10 -25 14 -5 26 -17 26 -26 0 -8 3 -14 8 -12 4 2
24 10 45 18 20 8 37 17 37 21 0 4 21 6 48 5 l47 -3 -34 14 c-19 8 -43 15 -53
16 -10 1 -18 5 -18 10 0 5 7 6 16 3 8 -3 13 -2 9 3 -3 5 13 25 35 44 33 28 38
36 25 41 -22 8 -27 8 -45 -4z"/>
<path d="M302 1595 c0 -16 4 -41 8 -55 l8 -25 0 25 c0 14 -4 39 -8 55 l-8 30
0 -30z"/>
<path d="M3260 1600 c0 -5 7 -7 15 -4 8 4 15 8 15 10 0 2 -7 4 -15 4 -8 0 -15
-4 -15 -10z"/>
<path d="M3975 1570 c3 -5 10 -10 16 -10 5 0 9 5 9 10 0 6 -7 10 -16 10 -8 0
-12 -4 -9 -10z"/>
<path d="M60 1546 c0 -10 -11 -19 -30 -22 -16 -4 -30 -10 -30 -15 0 -11 7 -11
53 2 40 11 45 20 22 39 -12 10 -15 9 -15 -4z"/>
<path d="M3063 1553 c-13 -2 -23 -8 -23 -12 0 -11 46 -31 70 -31 28 0 25 18
-5 26 -14 3 -22 10 -19 15 3 5 4 8 2 8 -2 -1 -13 -4 -25 -6z"/>
<path d="M3272 1538 c-21 -21 -13 -27 18 -17 17 6 30 15 30 20 0 13 -34 11
-48 -3z"/>
<path d="M321 1484 c-1 -20 -9 -37 -23 -46 -20 -13 -21 -17 -9 -46 7 -18 17
-30 21 -27 5 3 18 -8 30 -25 12 -16 27 -30 33 -30 20 1 45 24 49 45 2 17 -3
20 -34 20 -21 0 -38 -3 -38 -7 0 -17 -21 -7 -29 14 -9 25 -3 60 9 53 13 -8 23
15 12 28 -5 7 -12 21 -15 32 -3 14 -5 10 -6 -11z"/>
<path d="M3560 1476 c0 -2 8 -10 18 -17 15 -13 16 -12 3 4 -13 16 -21 21 -21
13z"/>
<path d="M2868 1457 c-7 -7 -25 -18 -40 -24 -27 -12 -38 -33 -19 -33 19 0 101
40 101 49 0 15 -29 21 -42 8z"/>
<path d="M3526 1455 c-9 -23 -8 -24 14 -18 12 3 19 10 17 16 -6 18 -24 19 -31
2z"/>
<path d="M3880 1415 l-45 -12 32 -16 c39 -20 58 -15 61 18 1 14 1 24 -1 24 -1
-1 -22 -7 -47 -14z"/>
<path d="M3137 1396 c-16 -13 -16 -14 8 -18 18 -4 29 0 36 13 8 15 6 19 -8 19
-10 0 -26 -7 -36 -14z"/>
<path d="M3925 1360 c-3 -6 -12 -9 -19 -8 -7 2 -29 -3 -48 -11 -47 -18 -58
-64 -21 -88 13 -9 25 -14 27 -12 24 31 77 121 73 125 -3 3 -8 0 -12 -6z"/>
<path d="M2800 1340 c-9 -6 -10 -10 -3 -10 6 0 15 5 18 10 8 12 4 12 -15 0z"/>
<path d="M40 1325 c7 -9 15 -13 17 -11 7 7 -7 26 -19 26 -6 0 -6 -6 2 -15z"/>
<path d="M2945 1320 c-3 -5 -1 -10 4 -10 6 0 11 5 11 10 0 6 -2 10 -4 10 -3 0
-8 -4 -11 -10z"/>
<path d="M550 1273 c-25 -8 -51 -17 -59 -19 -8 -2 -11 -7 -8 -10 6 -7 96 24
112 38 11 10 10 10 -45 -9z"/>
<path d="M3900 1278 c0 -9 -5 -18 -12 -20 -21 -7 2 -27 45 -39 23 -7 48 -19
55 -28 12 -14 13 -11 10 18 -3 30 -8 36 -43 48 -21 7 -43 19 -47 26 -5 8 -8 7
-8 -5z"/>
<path d="M12 1261 c-8 -5 -12 -19 -10 -32 l3 -24 13 23 c16 28 12 45 -6 33z"/>
<path d="M417 1248 c-15 -5 -25 -13 -22 -17 2 -5 -20 -13 -50 -20 -30 -7 -57
-17 -60 -22 -9 -14 8 -11 99 18 59 18 83 30 79 40 -6 15 -8 15 -46 1z"/>
<path d="M3663 1243 c-13 -5 -19 -33 -7 -33 7 0 34 27 34 34 0 7 -10 7 -27 -1z"/>
<path d="M3570 1215 c-8 -9 -26 -24 -40 -34 -41 -31 -17 -33 49 -5 35 16 61
33 61 42 0 11 -3 12 -14 3 -10 -8 -16 -9 -21 -1 -9 14 -18 13 -35 -5z"/>
<path d="M557 1181 c3 -12 9 -21 14 -21 14 0 11 16 -5 29 -12 10 -13 8 -9 -8z"/>
<path d="M3260 1190 c-13 -8 -13 -10 2 -10 9 0 20 5 23 10 8 13 -5 13 -25 0z"/>
<path d="M325 1150 c10 -11 23 -20 28 -20 6 0 0 9 -13 20 -13 11 -25 20 -28
20 -3 0 3 -9 13 -20z"/>
<path d="M3466 1154 c-8 -22 -8 -26 5 -22 6 2 10 7 9 12 -1 5 4 13 12 17 10 7
9 9 -3 9 -9 0 -20 -7 -23 -16z"/>
<path d="M370 1099 c0 -6 -6 -9 -13 -6 -8 3 -12 -5 -12 -24 -1 -36 30 -41 39
-6 8 32 7 47 -4 47 -5 0 -10 -5 -10 -11z"/>
<path d="M3483 1094 c-38 -16 -43 -24 -10 -17 18 4 19 3 7 -6 -22 -15 -6 -13
41 5 29 12 37 19 27 25 -17 11 -26 10 -65 -7z m47 -4 c-8 -5 -22 -10 -30 -10
-13 0 -13 1 0 10 8 5 22 10 30 10 13 0 13 -1 0 -10z"/>
<path d="M3551 1076 c-20 -11 -21 -14 -6 -19 9 -4 24 -3 33 3 11 6 12 9 4 10
-7 0 -10 5 -7 10 8 13 5 12 -24 -4z"/>
<path d="M243 1053 c-40 -12 -53 -20 -53 -34 0 -22 -1 -22 70 -5 44 10 56 17
58 34 4 26 -3 26 -75 5z"/>
<path d="M439 1023 c12 -24 31 -39 31 -25 0 5 -10 17 -21 28 -22 19 -22 19
-10 -3z"/>
<path d="M255 980 c-28 -7 -28 -8 -5 -9 14 0 32 4 40 9 17 11 8 11 -35 0z"/>
<path d="M480 969 c0 -5 -7 -9 -15 -9 -8 0 -15 -8 -15 -17 0 -16 2 -16 11 -3
9 12 10 12 5 -3 -20 -62 -19 -68 5 -59 16 6 25 19 27 38 2 16 8 34 13 40 6 8
3 13 -11 17 -11 3 -20 1 -20 -4z"/>
<path d="M394 921 c3 -5 -9 -11 -27 -14 -59 -10 -69 -13 -78 -29 -6 -11 -4
-21 6 -31 13 -13 21 -13 67 -1 74 19 99 57 49 75 -12 5 -20 5 -17 0z"/>
</g>
</svg>
